<svg width="45" height="27" viewBox="0 0 45 27" fill="none" xmlns="http://www.w3.org/2000/svg">
<path fill-rule="evenodd" clip-rule="evenodd" d="M23.7172 23.1134C26.0574 20.738 27.323 17.3302 26.9261 13.5431C26.5291 9.75607 24.549 6.34824 21.7108 3.97284C23.8056 1.84678 26.7627 0.547852 30.1588 0.547852C37.3489 0.547852 43.7877 6.36616 44.5401 13.5431C45.2924 20.7201 40.0734 26.5384 32.8833 26.5384C29.4872 26.5384 26.2578 25.2395 23.7172 23.1134ZM23.7172 23.1134C21.6224 25.2395 18.6654 26.5384 15.2693 26.5384C8.07916 26.5384 1.64029 20.7201 0.887955 13.5431C0.135622 6.36616 5.35467 0.547852 12.5448 0.547852C15.9409 0.547852 19.1703 1.84678 21.7108 3.97284C19.3707 6.34824 18.105 9.75607 18.502 13.5431C18.899 17.3302 20.8791 20.738 23.7172 23.1134Z" fill="white"></path>
</svg>
