<svg width="33" height="32" viewBox="0 0 33 32" fill="none" xmlns="http://www.w3.org/2000/svg">
<path d="M15.0465 6.2419C15.8791 5.34445 16.2954 4.89572 16.6334 4.8402C16.7665 4.81834 16.829 4.81848 16.962 4.84093C17.2998 4.89795 17.7157 5.35029 18.5475 6.25496C19.3973 7.17925 20.4766 8.11427 21.5958 8.46512C22.4976 8.74779 23.719 8.74333 24.7027 8.67049C25.464 8.61412 25.8447 8.58593 26.1088 8.7357C26.1967 8.7855 26.2707 8.84336 26.3403 8.91654C26.5496 9.13661 26.6064 9.46635 26.72 10.1258C27.1253 12.4791 27.6135 16.8106 26.3861 19.6279C25.255 22.2238 22.1861 24.6387 19.8235 26.2012C18.7123 26.9361 18.1567 27.3035 17.2458 27.4251C17.0054 27.4572 16.5861 27.4654 16.3446 27.4429C15.4297 27.3574 14.8591 27.0117 13.7179 26.3202C11.1876 24.787 7.83453 22.3501 6.62636 19.6279C5.38133 16.8227 5.87377 12.4974 6.28517 10.1391C6.40123 9.47377 6.45926 9.14111 6.67238 8.92045C6.74292 8.84741 6.81889 8.78919 6.90775 8.74005C7.17621 8.5916 7.55774 8.62611 8.32081 8.69512C9.46117 8.79825 10.946 8.827 12.0154 8.46512C13.1217 8.09072 14.1964 7.15837 15.0465 6.2419Z" fill="white" stroke="white" stroke-width="1.5" stroke-linejoin="round"></path>
</svg>
