<svg width="33" height="32" viewBox="0 0 33 32" fill="none" xmlns="http://www.w3.org/2000/svg">
<path d="M13.1667 28H7.16667V23.6476C7.16667 21.3978 7.16667 20.2729 7.73962 19.4843C7.92465 19.2296 8.14863 19.0056 8.40331 18.8206C9.19191 18.2476 10.3168 18.2476 12.5667 18.2476H13.1667V18.1333C13.1667 15.641 13.1667 14.3949 13.7026 13.4667C14.0536 12.8586 14.5586 12.3536 15.1667 12.0026C16.0949 11.4667 17.341 11.4667 19.8333 11.4667V7C19.8333 5.34315 21.1765 4 22.8333 4C24.4902 4 25.8333 5.34315 25.8333 7V28H19.8333H13.1667Z" fill="white"></path>
<path d="M28.5 28H25.8333M4.5 28H7.16667M19.8333 28H13.1667M19.8333 28V11.4667M19.8333 28H25.8333M13.1667 28H7.16667M13.1667 28V18.2476M7.16667 28V23.6476C7.16667 21.3978 7.16667 20.2729 7.73962 19.4843C7.92465 19.2296 8.14863 19.0056 8.40331 18.8206C9.19191 18.2476 10.3168 18.2476 12.5667 18.2476H13.1667M13.1667 18.2476V18.1333C13.1667 15.641 13.1667 14.3949 13.7026 13.4667C14.0536 12.8586 14.5586 12.3536 15.1667 12.0026C16.0949 11.4667 17.341 11.4667 19.8333 11.4667V11.4667M19.8333 11.4667V7C19.8333 5.34315 21.1765 4 22.8333 4V4C24.4902 4 25.8333 5.34315 25.8333 7V28" stroke="white" stroke-width="1.5" stroke-linecap="round"></path>
</svg>
