<svg width="139" height="33" viewBox="0 0 139 33" fill="none" xmlns="http://www.w3.org/2000/svg">
<path d="M0.986112 1.60833C0.638125 1.9635 0.436737 2.51647 0.436737 3.23258V28.7759C0.436737 29.492 0.638125 30.045 0.986112 30.4002L1.072 30.4781L15.7526 16.1703V15.8324L1.072 1.52459L0.986112 1.60833Z" fill="white"></path>
<path d="M22.4177 20.942L17.5296 16.1703V15.8324L22.4236 11.0607L22.5332 11.1228L28.329 14.3381C29.9831 15.2506 29.9831 16.7521 28.329 17.6704L22.5332 20.8799L22.4177 20.942Z" fill="white"></path>
<path d="M21.6447 21.7684L16.6411 16.8899L1.87458 31.2887C2.42396 31.8517 3.31984 31.9196 4.33863 31.3565L21.6447 21.7684Z" fill="white"></path>
<path d="M21.6447 10.2344L4.33863 0.646226C3.31984 0.0889269 2.42396 0.156783 1.87458 0.719856L16.6411 15.1129L21.6447 10.2344Z" fill="white"></path>
<path d="M45.6855 4.73267C45.6855 5.69712 45.3893 6.46954 44.8059 7.04561C44.1351 7.72852 43.2614 8.07213 42.1908 8.07213C41.1676 8.07213 40.2939 7.72274 39.5772 7.03406C38.859 6.33527 38.5007 5.47767 38.5007 4.45114C38.5007 3.42461 38.859 2.56701 39.5772 1.87399C40.2939 1.17953 41.1676 0.830139 42.1908 0.830139C42.7002 0.830139 43.1859 0.932648 43.6494 1.12323C44.1114 1.31525 44.4875 1.57513 44.76 1.89565L44.141 2.50492C43.6657 1.95773 43.0186 1.68775 42.1908 1.68775C41.4445 1.68775 40.7974 1.94185 40.248 2.45439C39.7046 2.96838 39.4321 3.63396 39.4321 4.45114C39.4321 5.26832 39.7046 5.93967 40.248 6.45366C40.7974 6.96042 41.4445 7.22031 42.1908 7.22031C42.9831 7.22031 43.6494 6.96043 44.1751 6.44788C44.5216 6.1086 44.7185 5.64081 44.7704 5.04309H42.1908V4.20858H45.6322C45.6737 4.38906 45.6855 4.56375 45.6855 4.73267Z" fill="white"></path>
<path d="M51.1452 1.83933H47.9126V4.03388H50.8268V4.86838H47.9126V7.06293H51.1452V7.91331H46.9975V0.988948H51.1452V1.83933Z" fill="white"></path>
<path d="M54.9982 7.91331H54.0831V1.83933H52.1003V0.988948H56.9825V1.83933H54.9982V7.91331Z" fill="white"></path>
<path d="M60.5157 7.91331V0.988948H61.4294V7.91331H60.5157Z" fill="white"></path>
<path d="M65.4793 7.91331H64.5716V1.83933H62.5814V0.988948H67.4695V1.83933H65.4793V7.91331Z" fill="white"></path>
<path d="M76.7127 7.02251C76.0123 7.72274 75.1445 8.07213 74.1094 8.07213C73.0684 8.07213 72.2007 7.72274 71.5003 7.02251C70.8013 6.32372 70.4533 5.46611 70.4533 4.45114C70.4533 3.43616 70.8013 2.57856 71.5003 1.87977C72.2007 1.17953 73.0684 0.830139 74.1094 0.830139C75.1386 0.830139 76.0064 1.17953 76.7068 1.88554C77.4116 2.59011 77.7596 3.44194 77.7596 4.45114C77.7596 5.46611 77.4116 6.32372 76.7127 7.02251ZM72.177 6.44211C72.7042 6.96043 73.3453 7.22031 74.1094 7.22031C74.8676 7.22031 75.5147 6.96043 76.036 6.44211C76.5617 5.92379 76.8282 5.25821 76.8282 4.45114C76.8282 3.64407 76.5617 2.97848 76.036 2.46017C75.5147 1.94185 74.8676 1.68197 74.1094 1.68197C73.3453 1.68197 72.7042 1.94185 72.177 2.46017C71.6513 2.97848 71.3848 3.64407 71.3848 4.45114C71.3848 5.25821 71.6513 5.92379 72.177 6.44211Z" fill="white"></path>
<path d="M79.0435 7.91331V0.988948H80.1541L83.6073 6.37425H83.6473L83.6073 5.04308V0.988948H84.521V7.91331H83.5673L79.9512 2.26236H79.9112L79.9512 3.5993V7.91331H79.0435Z" fill="white"></path>
<path d="M70.2283 18.0256C67.4458 18.0256 65.1728 20.0902 65.1728 22.9387C65.1728 25.7642 67.4458 27.8505 70.2283 27.8505C73.0166 27.8505 75.2896 25.7642 75.2896 22.9387C75.2896 20.0902 73.0166 18.0256 70.2283 18.0256ZM70.2283 25.9158C68.7016 25.9158 67.3881 24.6872 67.3881 22.9387C67.3881 21.1672 68.7016 19.9602 70.2283 19.9602C71.755 19.9602 73.0744 21.1672 73.0744 22.9387C73.0744 24.6872 71.755 25.9158 70.2283 25.9158ZM59.1978 18.0256C56.4095 18.0256 54.1424 20.0902 54.1424 22.9387C54.1424 25.7642 56.4095 27.8505 59.1978 27.8505C61.9847 27.8505 64.2532 25.7642 64.2532 22.9387C64.2532 20.0902 61.9847 18.0256 59.1978 18.0256ZM59.1978 25.9158C57.6696 25.9158 56.3517 24.6872 56.3517 22.9387C56.3517 21.1672 57.6696 19.9602 59.1978 19.9602C60.7245 19.9602 62.038 21.1672 62.038 22.9387C62.038 24.6872 60.7245 25.9158 59.1978 25.9158ZM46.072 19.5314V21.6191H51.1852C51.0356 22.7857 50.6358 23.6433 50.0228 24.241C49.2764 24.9629 48.114 25.7642 46.072 25.7642C42.9253 25.7642 40.4613 23.2881 40.4613 20.2201C40.4613 17.1521 42.9253 14.676 46.072 14.676C47.7734 14.676 49.0114 15.3243 49.925 16.1645L51.434 14.6933C50.156 13.5037 48.4561 12.5897 46.072 12.5897C41.757 12.5897 38.1305 16.0129 38.1305 20.2201C38.1305 24.4273 41.757 27.8505 46.072 27.8505C48.4043 27.8505 50.156 27.1055 51.5332 25.7079C52.9444 24.332 53.3842 22.3973 53.3842 20.8352C53.3842 20.3501 53.3427 19.9039 53.2687 19.5314H46.072ZM99.745 21.1499C99.3289 20.0512 98.0451 18.0256 95.43 18.0256C92.8386 18.0256 90.6811 20.0165 90.6811 22.9387C90.6811 25.6906 92.8164 27.8505 95.6788 27.8505C97.9932 27.8505 99.3289 26.4746 99.8783 25.6733L98.1606 24.5572C97.5875 25.3744 96.8071 25.9158 95.6788 25.9158C94.5578 25.9158 93.7537 25.4148 93.2384 24.4273L99.9775 21.7086L99.745 21.1499ZM92.8741 22.7857C92.8164 20.8915 94.3831 19.9213 95.5055 19.9213C96.3851 19.9213 97.1314 20.3501 97.3802 20.9637L92.8741 22.7857ZM87.3967 27.5516H89.6119V13.1138H87.3967V27.5516ZM83.7687 19.12H83.6947C83.1971 18.5453 82.2479 18.0256 81.0455 18.0256C78.5222 18.0256 76.2151 20.1855 76.2151 22.9546C76.2151 25.7079 78.5222 27.8505 81.0455 27.8505C82.2479 27.8505 83.1971 27.3264 83.6947 26.7344H83.7687V27.439C83.7687 29.3174 82.7395 30.3266 81.0796 30.3266C79.7261 30.3266 78.8865 29.3737 78.54 28.5724L76.6135 29.3563C77.1688 30.6586 78.6392 32.2612 81.0796 32.2612C83.6769 32.2612 85.8685 30.7713 85.8685 27.1459V18.3244H83.7687V19.12ZM81.2351 25.9158C79.7084 25.9158 78.4304 24.6698 78.4304 22.9546C78.4304 21.2235 79.7084 19.9602 81.2351 19.9602C82.7395 19.9602 83.9257 21.2235 83.9257 22.9546C83.9257 24.6698 82.7395 25.9158 81.2351 25.9158ZM110.117 13.1138H104.818V27.5516H107.028V22.0811H110.117C112.57 22.0811 114.977 20.3501 114.977 17.5968C114.977 14.8449 112.564 13.1138 110.117 13.1138ZM110.174 20.0728H107.028V15.1221H110.174C111.824 15.1221 112.766 16.4576 112.766 17.5968C112.766 18.7143 111.824 20.0728 110.174 20.0728ZM123.832 17.9981C122.235 17.9981 120.575 18.6854 119.893 20.2086L121.853 21.0099C122.275 20.2086 123.051 19.9487 123.872 19.9487C125.018 19.9487 126.18 20.62 126.198 21.8054V21.957C125.798 21.7318 124.942 21.3982 123.889 21.3982C121.778 21.3982 119.626 22.5316 119.626 24.6467C119.626 26.5814 121.356 27.8274 123.3 27.8274C124.787 27.8274 125.607 27.1734 126.123 26.4125H126.198V27.5285H128.332V21.9902C128.332 19.4304 126.371 17.9981 123.832 17.9981ZM123.565 25.91C122.843 25.91 121.836 25.5607 121.836 24.6872C121.836 23.5697 123.091 23.1409 124.178 23.1409C125.151 23.1409 125.607 23.3502 126.198 23.626C126.025 24.9629 124.845 25.91 123.565 25.91ZM136.106 18.3143L133.566 24.5731H133.491L130.866 18.3143H128.483L132.428 27.0607L130.177 31.9277H132.486L138.564 18.3143H136.106ZM116.191 27.5516H118.406V13.1138H116.191V27.5516Z" fill="white"></path>
</svg>
