<svg width="124" height="33" viewBox="0 0 124 33" fill="none" xmlns="http://www.w3.org/2000/svg">
<path d="M19.9876 15.1307C19.955 11.5983 22.9541 9.87975 23.0913 9.79974C21.3927 7.38525 18.7601 7.05535 17.8349 7.02905C15.6238 6.80217 13.479 8.31904 12.3527 8.31904C11.2038 8.31904 9.46934 7.05097 7.59996 7.08823C5.19437 7.1244 2.94391 8.48234 1.70964 10.5911C-0.837578 14.8907 1.06216 21.2091 3.50259 24.6845C4.72337 26.3866 6.14986 28.2871 8.017 28.2203C9.84367 28.1468 10.526 27.0848 12.7304 27.0848C14.9145 27.0848 15.5552 28.2203 17.4595 28.1775C19.4199 28.1468 20.6542 26.4677 21.8323 24.7503C23.243 22.7994 23.8096 20.8781 23.832 20.7795C23.7859 20.7642 20.0247 19.3646 19.9876 15.1307Z" fill="white"></path>
<path d="M16.3905 4.74278C17.3729 3.54485 18.0451 1.9151 17.8585 0.26123C16.4365 0.322607 14.6582 1.22023 13.6342 2.39186C12.7281 3.42429 11.9188 5.11652 12.1279 6.70792C13.7252 6.82409 15.3653 5.92208 16.3905 4.74278Z" fill="white"></path>
<path d="M41.2579 4.41728C41.2579 5.70728 40.8611 6.67834 40.0686 7.33046C39.3346 7.93216 38.2914 8.23356 36.9402 8.23356C36.2703 8.23356 35.697 8.20507 35.217 8.14808V1.09968C35.8431 1.00104 36.5176 0.950625 37.246 0.950625C38.5331 0.950625 39.5032 1.22353 40.1574 1.76934C40.8903 2.38639 41.2579 3.26867 41.2579 4.41728ZM40.0158 4.44907C40.0158 3.61282 39.7887 2.97165 39.3346 2.52448C38.8804 2.07841 38.2172 1.85483 37.3438 1.85483C36.9728 1.85483 36.657 1.87894 36.395 1.92936V7.28771C36.5401 7.30963 36.8053 7.3195 37.1909 7.3195C38.0924 7.3195 38.7883 7.07509 39.2784 6.58627C39.7685 6.09745 40.0158 5.38505 40.0158 4.44907Z" fill="white"></path>
<path d="M47.8441 5.54397C47.8441 6.33857 47.6114 6.9896 47.146 7.50033C46.6581 8.02532 46.0118 8.28726 45.2047 8.28726C44.4268 8.28726 43.8074 8.03628 43.3454 7.53212C42.8845 7.02905 42.6541 6.39447 42.6541 5.62946C42.6541 4.82938 42.8912 4.17287 43.3679 3.66323C43.8445 3.15359 44.4852 2.89822 45.2923 2.89822C46.0702 2.89822 46.6952 3.1492 47.1685 3.65227C47.6181 4.14109 47.8441 4.77238 47.8441 5.54397ZM46.6222 5.58123C46.6222 5.10447 46.5165 4.69566 46.3063 4.35481C46.059 3.94271 45.7071 3.73666 45.2496 3.73666C44.7764 3.73666 44.4167 3.94271 44.1694 4.35481C43.958 4.69566 43.8535 5.11105 43.8535 5.60206C43.8535 6.07882 43.9591 6.48763 44.1694 6.82848C44.4245 7.24058 44.7797 7.44663 45.2384 7.44663C45.688 7.44663 46.041 7.23729 46.295 6.81752C46.5131 6.47009 46.6222 6.05799 46.6222 5.58123Z" fill="white"></path>
<path d="M56.675 3.00343L55.017 8.16999H53.9378L53.251 5.92647C53.0768 5.36642 52.9351 4.80965 52.825 4.25726H52.8036C52.7013 4.82499 52.5597 5.38066 52.3776 5.92647L51.648 8.16999H50.5565L48.9974 3.00343H50.208L50.8072 5.45958C50.9522 6.04046 51.0714 6.59394 51.1669 7.11783H51.1883C51.276 6.686 51.421 6.13581 51.6255 5.47054L52.3776 3.00453H53.3376L54.0581 5.41793C54.2323 6.00648 54.374 6.57312 54.483 7.11892H54.5156C54.5954 6.58736 54.7157 6.02073 54.8753 5.41793L55.5183 3.00453H56.675V3.00343Z" fill="white"></path>
<path d="M62.7823 8.17H61.6042V5.21079C61.6042 4.29892 61.249 3.84298 60.5363 3.84298C60.1867 3.84298 59.9046 3.96793 59.6854 4.21891C59.4684 4.4699 59.3583 4.76582 59.3583 5.10448V8.16891H58.1802V4.47976C58.1802 4.02601 58.1656 3.53391 58.1375 3.00125H59.1728L59.2279 3.80901H59.2605C59.3976 3.55802 59.6022 3.35088 59.8709 3.18538C60.1901 2.99248 60.5476 2.89494 60.9388 2.89494C61.4334 2.89494 61.8448 3.05057 62.1719 3.36293C62.5788 3.74544 62.7823 4.31645 62.7823 5.07489V8.17Z" fill="white"></path>
<path d="M66.031 8.16999H64.854V0.632779H66.031V8.16999Z" fill="white"></path>
<path d="M72.9667 5.54397C72.9667 6.33857 72.734 6.9896 72.2686 7.50033C71.7808 8.02532 71.1333 8.28726 70.3273 8.28726C69.5483 8.28726 68.9289 8.03628 68.468 7.53212C68.0071 7.02905 67.7767 6.39447 67.7767 5.62946C67.7767 4.82938 68.0139 4.17287 68.4905 3.66323C68.9671 3.15359 69.6079 2.89822 70.4138 2.89822C71.1929 2.89822 71.8167 3.1492 72.2911 3.65227C72.7408 4.14109 72.9667 4.77238 72.9667 5.54397ZM71.7437 5.58123C71.7437 5.10447 71.638 4.69566 71.4278 4.35481C71.1816 3.94271 70.8286 3.73666 70.3723 3.73666C69.8979 3.73666 69.5382 3.94271 69.292 4.35481C69.0807 4.69566 68.9761 5.11105 68.9761 5.60206C68.9761 6.07882 69.0818 6.48763 69.292 6.82848C69.5472 7.24058 69.9024 7.44663 70.361 7.44663C70.8107 7.44663 71.1625 7.23729 71.4165 6.81752C71.6357 6.47009 71.7437 6.05799 71.7437 5.58123Z" fill="white"></path>
<path d="M78.6682 8.16999H77.6104L77.5227 7.57486H77.4901C77.1281 8.04943 76.6122 8.28726 75.9422 8.28726C75.442 8.28726 75.0373 8.13054 74.7327 7.81927C74.4561 7.5365 74.3179 7.18469 74.3179 6.76711C74.3179 6.13581 74.5877 5.65467 75.1306 5.32148C75.6724 4.9883 76.4346 4.82499 77.4159 4.83266V4.73622C77.4159 4.0556 77.0494 3.71584 76.3154 3.71584C75.7927 3.71584 75.3318 3.84407 74.9339 4.09834L74.6944 3.34429C75.1868 3.04728 75.7949 2.89822 76.5121 2.89822C77.897 2.89822 78.5917 3.61062 78.5917 5.03542V6.93809C78.5917 7.4543 78.6176 7.8653 78.6682 8.16999ZM77.4451 6.39447V5.59767C76.1457 5.57575 75.4959 5.92319 75.4959 6.63888C75.4959 6.90849 75.5701 7.11016 75.7219 7.24497C75.8736 7.37977 76.067 7.44663 76.2974 7.44663C76.556 7.44663 76.7976 7.36662 77.018 7.2077C77.2394 7.04769 77.3754 6.84492 77.426 6.59613C77.4384 6.54024 77.4451 6.47228 77.4451 6.39447Z" fill="white"></path>
<path d="M85.3622 8.16999H84.3168L84.2617 7.34031H84.2291C83.8952 7.97161 83.3265 8.28726 82.5272 8.28726C81.8887 8.28726 81.357 8.04285 80.9355 7.55404C80.5139 7.06522 80.3037 6.43063 80.3037 5.65138C80.3037 4.81513 80.5319 4.13779 80.9906 3.62048C81.4346 3.13824 81.9787 2.89712 82.6261 2.89712C83.3377 2.89712 83.8357 3.13057 84.1189 3.59856H84.1414V0.632779H85.3206V6.77807C85.3206 7.28113 85.3341 7.74474 85.3622 8.16999ZM84.1414 5.99114V5.12968C84.1414 4.98062 84.1302 4.86006 84.1088 4.768C84.0425 4.49181 83.8997 4.25945 83.6828 4.07204C83.4636 3.88462 83.1994 3.79036 82.8948 3.79036C82.4553 3.79036 82.1113 3.96024 81.8584 4.3011C81.6077 4.64196 81.4807 5.07707 81.4807 5.60863C81.4807 6.11937 81.601 6.53366 81.8426 6.85259C82.0978 7.19236 82.4418 7.36224 82.8723 7.36224C83.259 7.36224 83.5681 7.22085 83.8031 6.93699C84.0301 6.67504 84.1414 6.35939 84.1414 5.99114Z" fill="white"></path>
<path d="M95.4376 5.54397C95.4376 6.33857 95.2049 6.9896 94.7395 7.50033C94.2516 8.02532 93.6064 8.28726 92.7982 8.28726C92.0214 8.28726 91.402 8.03628 90.9389 7.53212C90.478 7.02905 90.2476 6.39447 90.2476 5.62946C90.2476 4.82938 90.4848 4.17287 90.9614 3.66323C91.438 3.15359 92.0787 2.89822 92.887 2.89822C93.6637 2.89822 94.2898 3.1492 94.762 3.65227C95.2116 4.14109 95.4376 4.77238 95.4376 5.54397ZM94.2168 5.58123C94.2168 5.10447 94.1111 4.69566 93.9009 4.35481C93.6525 3.94271 93.3018 3.73666 92.8431 3.73666C92.371 3.73666 92.0113 3.94271 91.7629 4.35481C91.5515 4.69566 91.447 5.11105 91.447 5.60206C91.447 6.07882 91.5527 6.48763 91.7629 6.82848C92.018 7.24058 92.3733 7.44663 92.8319 7.44663C93.2815 7.44663 93.6356 7.23729 93.8897 6.81752C94.1066 6.47009 94.2168 6.05799 94.2168 5.58123Z" fill="white"></path>
<path d="M101.772 8.17H100.595V5.21079C100.595 4.29892 100.24 3.84298 99.5259 3.84298C99.1763 3.84298 98.8942 3.96793 98.6761 4.21891C98.458 4.4699 98.349 4.76582 98.349 5.10448V8.16891H97.1698V4.47976C97.1698 4.02601 97.1563 3.53391 97.1282 3.00125H98.1624L98.2175 3.80901H98.2501C98.3883 3.55802 98.5929 3.35088 98.8605 3.18538C99.1808 2.99248 99.5372 2.89494 99.9295 2.89494C100.423 2.89494 100.834 3.05057 101.161 3.36293C101.57 3.74544 101.772 4.31645 101.772 5.07489V8.17Z" fill="white"></path>
<path d="M109.7 3.8638H108.403V6.37365C108.403 7.01152 108.633 7.33046 109.09 7.33046C109.301 7.33046 109.477 7.31292 109.615 7.27676L109.645 8.14808C109.412 8.23357 109.107 8.27631 108.73 8.27631C108.265 8.27631 107.903 8.13821 107.641 7.86202C107.378 7.58583 107.247 7.12112 107.247 6.469V3.8638H106.473V3.00344H107.247V2.05649L108.402 1.71673V3.00235H109.699V3.8638H109.7Z" fill="white"></path>
<path d="M115.937 8.16999H114.758V5.2327C114.758 4.30658 114.402 3.84297 113.691 3.84297C113.144 3.84297 112.771 4.11149 112.567 4.64853C112.532 4.76142 112.512 4.89952 112.512 5.06173V8.16889H111.335V0.632779H112.512V3.74652H112.534C112.905 3.17989 113.437 2.89712 114.126 2.89712C114.614 2.89712 115.017 3.05275 115.338 3.36511C115.737 3.75419 115.937 4.33288 115.937 5.09789V8.16999Z" fill="white"></path>
<path d="M122.37 5.3423C122.37 5.54835 122.354 5.72152 122.326 5.8629H118.793C118.809 6.37364 118.977 6.76272 119.305 7.03234C119.604 7.27346 119.989 7.39402 120.461 7.39402C120.984 7.39402 121.461 7.31291 121.89 7.14961L122.074 7.9475C121.572 8.16012 120.981 8.26643 120.296 8.26643C119.475 8.26643 118.829 8.03079 118.361 7.55951C117.892 7.08823 117.659 6.45584 117.659 5.66233C117.659 4.88307 117.876 4.23424 118.313 3.71693C118.769 3.16454 119.387 2.88835 120.166 2.88835C120.928 2.88835 121.507 3.16454 121.898 3.71693C122.214 4.15533 122.37 4.69785 122.37 5.3423ZM121.246 5.04528C121.255 4.70443 121.177 4.4107 121.018 4.163C120.813 3.84406 120.502 3.68405 120.08 3.68405C119.696 3.68405 119.382 3.83968 119.143 4.15204C118.947 4.40083 118.831 4.69785 118.793 5.04528H121.246Z" fill="white"></path>
<path d="M46.4232 27.9758H43.8703L42.4719 23.6916H37.6113L36.2792 27.9758H33.7938L38.6095 13.3902H41.5839L46.4232 27.9758ZM42.0504 21.8941L40.7858 18.0855C40.652 17.6964 40.4013 16.7802 40.0315 15.3378H39.9865C39.8393 15.9582 39.6021 16.8744 39.2761 18.0855L38.034 21.8941H42.0504Z" fill="white"></path>
<path d="M58.8074 22.5879C58.8074 24.3766 58.3117 25.7904 57.3202 26.8283C56.4322 27.7523 55.3294 28.2137 54.0131 28.2137C52.5923 28.2137 51.5716 27.7161 50.9499 26.7209H50.905V32.2612H48.5084V20.9209C48.5084 19.7964 48.478 18.6423 48.4196 17.4586H50.5273L50.661 19.1256H50.706C51.5052 17.8696 52.7182 17.2427 54.3459 17.2427C55.6183 17.2427 56.6806 17.7326 57.5304 18.7135C58.3825 19.6956 58.8074 20.9866 58.8074 22.5879ZM56.3659 22.6734C56.3659 21.6497 56.1298 20.8058 55.6554 20.1416C55.1372 19.449 54.4414 19.1026 53.5691 19.1026C52.9778 19.1026 52.4405 19.2955 51.9605 19.6758C51.4794 20.0594 51.1646 20.5603 51.0174 21.1806C50.9432 21.47 50.9061 21.7067 50.9061 21.893V23.6466C50.9061 24.4117 51.1467 25.0572 51.6278 25.5844C52.1089 26.1116 52.7339 26.3746 53.5028 26.3746C54.4054 26.3746 55.108 26.0348 55.6105 25.3575C56.1141 24.6791 56.3659 23.7847 56.3659 22.6734Z" fill="white"></path>
<path d="M71.2142 22.5879C71.2142 24.3766 70.7185 25.7904 69.7259 26.8283C68.839 27.7523 67.7362 28.2137 66.4199 28.2137C64.999 28.2137 63.9783 27.7161 63.3578 26.7209H63.3129V32.2612H60.9163V20.9209C60.9163 19.7964 60.8859 18.6423 60.8275 17.4586H62.9352L63.0689 19.1256H63.1139C63.912 17.8696 65.1249 17.2427 66.7538 17.2427C68.0251 17.2427 69.0874 17.7326 69.9395 18.7135C70.7882 19.6956 71.2142 20.9866 71.2142 22.5879ZM68.7726 22.6734C68.7726 21.6497 68.5355 20.8058 68.0611 20.1416C67.5429 19.449 66.8493 19.1026 65.9759 19.1026C65.3835 19.1026 64.8473 19.2955 64.3661 19.6758C63.885 20.0594 63.5714 20.5603 63.4241 21.1806C63.3511 21.47 63.3129 21.7067 63.3129 21.893V23.6466C63.3129 24.4117 63.5534 25.0572 64.0323 25.5844C64.5134 26.1105 65.1384 26.3746 65.9095 26.3746C66.8122 26.3746 67.5148 26.0348 68.0172 25.3575C68.5208 24.6791 68.7726 23.7847 68.7726 22.6734Z" fill="white"></path>
<path d="M85.0857 23.8856C85.0857 25.1262 84.6439 26.1357 83.757 26.9149C82.7824 27.7665 81.4256 28.1918 79.6821 28.1918C78.0724 28.1918 76.7819 27.8893 75.805 27.2832L76.3603 25.3356C77.4125 25.9559 78.567 26.2672 79.8248 26.2672C80.7275 26.2672 81.4301 26.0677 81.9348 25.671C82.4373 25.2742 82.6879 24.7416 82.6879 24.0774C82.6879 23.4855 82.4811 22.9868 82.0663 22.5824C81.6538 22.178 80.9647 21.8021 80.0024 21.4546C77.3833 20.5022 76.0748 19.107 76.0748 17.2723C76.0748 16.0733 76.5335 15.0901 77.4519 14.3251C78.3669 13.559 79.5876 13.1765 81.1142 13.1765C82.4755 13.1765 83.6063 13.4078 84.509 13.8692L83.9098 15.7741C83.0667 15.3269 82.1135 15.1033 81.0467 15.1033C80.2037 15.1033 79.5449 15.3061 79.0728 15.7094C78.6738 16.07 78.4737 16.5095 78.4737 17.0301C78.4737 17.6066 78.7019 18.0833 79.1605 18.4582C79.5595 18.8045 80.2846 19.1793 81.3368 19.5838C82.6239 20.089 83.5692 20.6798 84.1774 21.3571C84.7833 22.0322 85.0857 22.8772 85.0857 23.8856Z" fill="white"></path>
<path d="M93.0095 19.2122H90.3678V24.3185C90.3678 25.6172 90.8332 26.2661 91.7662 26.2661C92.1945 26.2661 92.5497 26.2299 92.8307 26.1576L92.8971 27.932C92.4249 28.1041 91.8033 28.1907 91.0333 28.1907C90.0868 28.1907 89.3471 27.909 88.8132 27.3467C88.2815 26.7834 88.0139 25.8386 88.0139 24.5114V19.21H86.4402V17.4564H88.0139V15.5307L90.3678 14.8381V17.4564H93.0095V19.2122Z" fill="white"></path>
<path d="M104.928 22.6306C104.928 24.2472 104.454 25.5745 103.507 26.6124C102.515 27.681 101.197 28.2137 99.5551 28.2137C97.9724 28.2137 96.7123 27.7018 95.7725 26.6782C94.8327 25.6545 94.3629 24.3623 94.3629 22.8049C94.3629 21.1751 94.8462 19.8402 95.8163 18.8023C96.7842 17.7633 98.0904 17.2438 99.7327 17.2438C101.315 17.2438 102.589 17.7556 103.55 18.7804C104.47 19.7745 104.928 21.0579 104.928 22.6306ZM102.442 22.7063C102.442 21.7363 102.229 20.9044 101.799 20.2107C101.296 19.3711 100.578 18.9525 99.6473 18.9525C98.6839 18.9525 97.9521 19.3722 97.4497 20.2107C97.0191 20.9055 96.8067 21.7506 96.8067 22.7501C96.8067 23.7201 97.0191 24.5519 97.4497 25.2446C97.9679 26.0841 98.6918 26.5028 99.6259 26.5028C100.541 26.5028 101.259 26.0754 101.777 25.2227C102.219 24.5158 102.442 23.6751 102.442 22.7063Z" fill="white"></path>
<path d="M112.718 19.5136C112.481 19.4709 112.228 19.449 111.963 19.449C111.12 19.449 110.468 19.7591 110.009 20.3806C109.61 20.9286 109.41 21.6212 109.41 22.4575V27.9759H107.015L107.037 20.7707C107.037 19.5586 107.007 18.4549 106.947 17.4597H109.035L109.122 19.472H109.189C109.442 18.7804 109.841 18.2236 110.387 17.806C110.921 17.4301 111.498 17.2427 112.119 17.2427C112.341 17.2427 112.541 17.258 112.718 17.2854V19.5136Z" fill="white"></path>
<path d="M123.437 22.2196C123.437 22.6383 123.409 22.9912 123.349 23.2795H116.159C116.187 24.3185 116.535 25.1131 117.202 25.6611C117.808 26.151 118.592 26.3965 119.554 26.3965C120.619 26.3965 121.59 26.231 122.463 25.8989L122.839 27.521C121.818 27.955 120.613 28.1709 119.222 28.1709C117.55 28.1709 116.237 27.6909 115.281 26.7319C114.328 25.7729 113.85 24.4851 113.85 22.8696C113.85 21.2836 114.294 19.963 115.184 18.9097C116.114 17.7852 117.372 17.223 118.955 17.223C120.51 17.223 121.687 17.7852 122.486 18.9097C123.119 19.803 123.437 20.9077 123.437 22.2196ZM121.151 21.6135C121.167 20.9209 121.011 20.3225 120.686 19.8172C120.271 19.1673 119.634 18.8429 118.776 18.8429C117.993 18.8429 117.355 19.1596 116.869 19.7953C116.47 20.3005 116.232 20.9066 116.159 21.6125H121.151V21.6135Z" fill="white"></path>
</svg>
