<svg width="51" height="51" viewBox="0 0 51 51" fill="none" xmlns="http://www.w3.org/2000/svg">
<rect x="0.8125" y="0.617065" width="50" height="50" rx="25" fill="#00715D"/>
<g clip-path="url(#clip0_2311_1228)">
<path d="M23.3125 32.3171L27.4292 28.1837C28.1847 27.4393 28.6958 26.5615 28.9625 25.5504C29.2181 24.5615 29.2181 23.5726 28.9625 22.5837C28.6958 21.5726 28.1875 20.6921 27.4375 19.9421C26.6875 19.1921 25.8069 18.6837 24.7958 18.4171C23.8069 18.1615 22.8181 18.1615 21.8292 18.4171C20.8181 18.6837 19.9375 19.1921 19.1875 19.9421C18.4375 20.6921 17.9292 21.5726 17.6625 22.5837C17.4069 23.5726 17.4069 24.5615 17.6625 25.5504C17.9292 26.5615 18.4403 27.4393 19.1958 28.1837L23.3125 32.3171ZM23.3125 34.6671L18.0125 29.3671C17.0458 28.4115 16.3958 27.2782 16.0625 25.9671C15.7292 24.7004 15.7292 23.4337 16.0625 22.1671C16.3958 20.8559 17.0431 19.7198 18.0042 18.7587C18.9653 17.7976 20.1014 17.1448 21.4125 16.8004C22.6792 16.4782 23.9458 16.4782 25.2125 16.8004C26.5236 17.1448 27.6597 17.7976 28.6208 18.7587C29.5819 19.7198 30.2292 20.8559 30.5625 22.1671C30.8958 23.4337 30.8958 24.7004 30.5625 25.9671C30.2292 27.2782 29.5792 28.4115 28.6125 29.3671L23.3125 34.6671ZM23.3125 25.7337C23.6125 25.7337 23.8903 25.6587 24.1458 25.5087C24.4014 25.3587 24.6042 25.1559 24.7542 24.9004C24.9042 24.6448 24.9792 24.3671 24.9792 24.0671C24.9792 23.7671 24.9042 23.4893 24.7542 23.2337C24.6042 22.9782 24.4014 22.7754 24.1458 22.6254C23.8903 22.4754 23.6125 22.4004 23.3125 22.4004C23.0125 22.4004 22.7347 22.4754 22.4792 22.6254C22.2236 22.7754 22.0208 22.9782 21.8708 23.2337C21.7208 23.4893 21.6458 23.7671 21.6458 24.0671C21.6458 24.3671 21.7208 24.6448 21.8708 24.9004C22.0208 25.1559 22.2236 25.3587 22.4792 25.5087C22.7347 25.6587 23.0125 25.7337 23.3125 25.7337ZM23.3125 27.4004C22.7125 27.4004 22.1569 27.2504 21.6458 26.9504C21.1347 26.6504 20.7292 26.2448 20.4292 25.7337C20.1292 25.2226 19.9792 24.6643 19.9792 24.0587C19.9792 23.4532 20.1292 22.8976 20.4292 22.3921C20.7292 21.8865 21.1347 21.4837 21.6458 21.1837C22.1569 20.8837 22.7125 20.7337 23.3125 20.7337C23.9125 20.7337 24.4681 20.8837 24.9792 21.1837C25.4903 21.4837 25.8958 21.8865 26.1958 22.3921C26.4958 22.8976 26.6458 23.4532 26.6458 24.0587C26.6458 24.6643 26.4958 25.2226 26.1958 25.7337C25.8958 26.2448 25.4903 26.6504 24.9792 26.9504C24.4681 27.2504 23.9125 27.4004 23.3125 27.4004Z" fill="white"/>
</g>
<defs>
<clipPath id="clip0_2311_1228">
<rect width="20" height="20" fill="white" transform="matrix(1 0 0 -1 15.8125 35.6171)"/>
</clipPath>
</defs>
</svg>
