<svg width="51" height="51" viewBox="0 0 51 51" fill="none" xmlns="http://www.w3.org/2000/svg">
<rect x="0.0117188" y="0.617065" width="50" height="50" rx="25" fill="#00715D"/>
<g clip-path="url(#clip0_2311_1222)">
<path d="M15.8451 18.1171H30.8451C31.0784 18.1171 31.2756 18.1976 31.4367 18.3587C31.5978 18.5198 31.6784 18.7171 31.6784 18.9504V32.2837C31.6784 32.5171 31.5978 32.7143 31.4367 32.8754C31.2756 33.0365 31.0784 33.1171 30.8451 33.1171H15.8451C15.6117 33.1171 15.4145 33.0365 15.2534 32.8754C15.0923 32.7143 15.0117 32.5171 15.0117 32.2837V18.9504C15.0117 18.7171 15.0923 18.5198 15.2534 18.3587C15.4145 18.1976 15.6117 18.1171 15.8451 18.1171ZM23.3951 25.3504L18.0451 20.8171L16.9784 22.0837L23.4117 27.5504L29.7284 22.0837L28.6284 20.8171L23.3951 25.3504Z" fill="white"/>
</g>
<defs>
<clipPath id="clip0_2311_1222">
<rect width="20" height="20" fill="white" transform="matrix(1 0 0 -1 15.0117 35.6171)"/>
</clipPath>
</defs>
</svg>
