<svg width="51" height="51" viewBox="0 0 51 51" fill="none" xmlns="http://www.w3.org/2000/svg">
<rect x="0.681641" y="0.617065" width="50" height="50" rx="25" fill="#00715D"/>
<g clip-path="url(#clip0_2311_1216)">
<path d="M30.6816 29.3004V32.2504C30.6816 32.4615 30.6066 32.6476 30.4566 32.8087C30.3066 32.9698 30.1261 33.0615 29.915 33.0837C29.5483 33.106 29.2483 33.1171 29.015 33.1171C27.2039 33.1171 25.4761 32.7671 23.8316 32.0671C22.2316 31.3893 20.8178 30.4365 19.59 29.2087C18.3622 27.981 17.4094 26.5671 16.7316 24.9671C16.0316 23.3226 15.6816 21.5948 15.6816 19.7837C15.6816 19.5504 15.6928 19.2504 15.715 18.8837C15.7372 18.6726 15.8289 18.4921 15.99 18.3421C16.1511 18.1921 16.3372 18.1171 16.5483 18.1171H19.4983C19.6094 18.1171 19.7039 18.1532 19.7816 18.2254C19.8594 18.2976 19.9039 18.3837 19.915 18.4837L19.965 18.9504C20.1316 20.1171 20.465 21.2282 20.965 22.2837C21.0094 22.3726 21.0205 22.4615 20.9983 22.5504C20.9761 22.6393 20.9261 22.7115 20.8483 22.7671L19.0483 24.0504C19.5928 25.3282 20.3594 26.4615 21.3483 27.4504C22.3372 28.4393 23.4705 29.206 24.7483 29.7504L26.0316 27.9504C26.0872 27.8726 26.1594 27.8226 26.2483 27.8004C26.3372 27.7782 26.4261 27.7893 26.515 27.8337C27.5705 28.3337 28.6816 28.6671 29.8483 28.8337L30.315 28.8837C30.415 28.8948 30.5011 28.9393 30.5733 29.0171C30.6455 29.0948 30.6816 29.1893 30.6816 29.3004Z" fill="white"/>
</g>
<defs>
<clipPath id="clip0_2311_1216">
<rect width="20" height="20" fill="white" transform="matrix(1 0 0 -1 15.6816 35.6171)"/>
</clipPath>
</defs>
</svg>
