<svg width="3221" height="6944" fill="none" xmlns="http://www.w3.org/2000/svg"><path d="M1757.5 1036c100.5-1.5 302.36 18.77 179.16 174.5-154.01 194.67 391.62 346.87 303.61 194.67-88-152.19-756.84 21.24-215.61 279.62 432.98 206.7-418.02 260.73-897.65 261.91-167.861 7.67-425.501 84.61-113.15 331.01 390.43 307.99 1096.85 438.98 1053.82 626.61C2024.66 3091.94 480.643 3908 1013.86 3908c1173.14 0 104.28 471.89 565.14 632 140.55 48.83 734.95-33.83 704 276-57.66 577.28-1476.8 303.2-1320 620 196 396 1320 544 1350 680" stroke="#2BB32A" stroke-width="1.5" stroke-linecap="square"/><g filter="url('#filter0_f_1_9')"><circle cx="1749" cy="1046" r="246" fill="#2BB32A"/></g><g filter="url('#filter1_f_1_9')"><circle cx="2175" cy="2952" r="246" fill="#2BB32A"/></g><g filter="url('#filter2_f_1_9')"><circle cx="1046" cy="4901" r="246" fill="#2BB32A"/></g><g filter="url('#filter3_f_1_9')"><circle cx="1094" cy="4936" r="246" fill="#2BB32A"/></g><g filter="url('#filter4_f_1_9')"><circle cx="2188" cy="5951" r="193" fill="#2BB32A"/></g><path d="M1381.55 1566.89c.3-.92 1.6-.92 1.9 0l4.71 14.31c.1.31.33.54.64.64l14.31 4.71c.92.3.92 1.6 0 1.9l-14.31 4.71c-.31.1-.54.33-.64.64l-4.71 14.31c-.3.92-1.6.92-1.9 0l-4.71-14.31a.975.975 0 0 0-.64-.64l-14.31-4.71c-.92-.3-.92-1.6 0-1.9l14.31-4.71c.31-.1.54-.33.64-.64l4.71-14.31ZM1925.87 1192.39c.13-.95 1.41-1.19 1.87-.34l7.2 13.24c.15.28.43.47.74.52l14.93 2.06c.95.13 1.19 1.41.34 1.87l-13.24 7.2c-.28.15-.47.43-.52.74l-2.06 14.93c-.13.95-1.41 1.19-1.87.34l-7.2-13.24a.988.988 0 0 0-.74-.51l-14.93-2.07c-.95-.13-1.19-1.41-.34-1.87l13.24-7.2c.28-.15.47-.42.52-.74l2.06-14.93ZM2024.27 1846.59c.78-.56 1.83.2 1.54 1.12l-3.75 11.71c-.1.3-.05.63.14.89l7.2 9.97c.56.78-.2 1.83-1.12 1.54l-11.71-3.75a.98.98 0 0 0-.89.14l-9.97 7.2c-.78.56-1.83-.2-1.54-1.12l3.75-11.71c.1-.3.05-.63-.14-.89l-7.2-9.97c-.56-.78.2-1.83 1.12-1.54l11.71 3.75c.3.1.63.05.89-.14l9.97-7.2ZM1712.04 2458.38c-.34-.91.67-1.72 1.48-1.19l7.66 4.97c.27.17.6.21.9.1l8.54-3.22c.91-.34 1.72.67 1.19 1.48l-4.97 7.66a.99.99 0 0 0-.09.9l3.21 8.54c.34.91-.67 1.72-1.48 1.19l-7.66-4.97a.99.99 0 0 0-.9-.09l-8.54 3.21c-.91.34-1.72-.67-1.19-1.48l4.97-7.66c.17-.27.21-.6.1-.9l-3.22-8.54ZM1163.43 4045.98c.77-.58 1.84.17 1.56 1.09l-1.71 5.71c-.09.3-.03.63.16.89l3.58 4.76c.57.78-.17 1.84-1.09 1.56l-5.71-1.71c-.3-.09-.63-.03-.89.16l-4.76 3.58c-.78.58-1.84-.17-1.56-1.09l1.71-5.71c.09-.3.03-.63-.16-.89l-3.58-4.76c-.58-.78.17-1.84 1.09-1.56l5.71 1.71c.3.09.63.03.89-.16l4.76-3.58ZM1299.42 2239.17c.62-.75 1.82-.28 1.77.68l-.32 5.96a1 1 0 0 0 .36.82l4.6 3.79c.75.62.28 1.83-.69 1.77l-5.95-.32c-.31-.01-.62.12-.82.37l-3.79 4.59c-.62.75-1.83.28-1.77-.69l.32-5.95c.01-.31-.12-.62-.37-.82l-4.6-3.79c-.74-.62-.27-1.83.69-1.77l5.96.32c.31.01.62-.12.82-.37l3.79-4.59ZM1398.62 2938.42c-.07-.96 1.13-1.46 1.76-.73l3.89 4.52c.21.24.52.37.83.34l5.95-.45c.96-.08 1.46 1.12.73 1.75l-4.52 3.89c-.24.21-.36.52-.34.84l.45 5.94c.08.96-1.12 1.46-1.75.73l-3.89-4.51a1.03 1.03 0 0 0-.84-.35l-5.94.46c-.96.07-1.46-1.13-.73-1.76l4.51-3.89c.24-.21.37-.52.35-.83l-.46-5.95ZM1012.5 3178.49c.51-.86 1.83-.52 1.86.48l.44 15.62c.01.32.16.61.42.8l11.87 8.31c.76.54.45 1.72-.47 1.82l-14.41 1.5c-.32.04-.6.22-.76.49l-7.97 13.44c-.51.86-1.83.52-1.86-.48l-.44-15.62c-.01-.32-.17-.61-.43-.8l-11.866-8.31c-.757-.54-.45-1.72.47-1.82l14.416-1.5c.32-.04.6-.22.76-.49l7.97-13.44ZM2079.18 3338.37c.04-.96 1.29-1.31 1.83-.51l9.01 13.54c.18.26.47.43.79.44l16.24.78c.96.04 1.31 1.29.5 1.83l-13.53 9.01c-.26.18-.43.47-.44.79l-.78 16.24c-.05.96-1.3 1.31-1.83.5l-9.01-13.53c-.18-.26-.47-.43-.79-.44l-16.24-.78c-.96-.05-1.31-1.3-.51-1.83l13.54-9.01c.26-.18.42-.47.44-.79l.78-16.24ZM1569.05 4294.89c.3-.92 1.6-.92 1.9 0l.87 2.65c.1.3.34.54.64.64l2.65.87c.92.3.92 1.6 0 1.9l-2.65.87c-.3.1-.54.34-.64.64l-.87 2.65c-.3.92-1.6.92-1.9 0l-.87-2.65c-.1-.3-.34-.54-.64-.64l-2.65-.87c-.92-.3-.92-1.6 0-1.9l2.65-.87c.3-.1.54-.34.64-.64l.87-2.65ZM1676.91 3678.8c.56-.79 1.8-.41 1.82.55l.07 2.79c.01.32.17.62.43.8l2.28 1.6c.79.55.42 1.8-.55 1.82l-2.79.07a1 1 0 0 0-.79.42l-1.6 2.29c-.56.79-1.8.41-1.82-.55l-.07-2.79c-.01-.32-.17-.61-.43-.8l-2.28-1.6c-.79-.55-.42-1.79.55-1.82l2.79-.06c.31-.01.61-.17.79-.43l1.6-2.29ZM1854.05 3039.89c.3-.92 1.6-.92 1.9 0l2.85 8.67c.1.3.34.54.64.64l8.67 2.85c.92.3.92 1.6 0 1.9l-8.67 2.85c-.3.1-.54.34-.64.64l-2.85 8.67c-.3.92-1.6.92-1.9 0l-2.85-8.67c-.1-.3-.34-.54-.64-.64l-8.67-2.85c-.92-.3-.92-1.6 0-1.9l8.67-2.85c.3-.1.54-.34.64-.64l2.85-8.67ZM2206.3 2866.31c-.16-.95.98-1.56 1.68-.9l13.48 12.86c.23.22.55.32.87.26l18.35-3.22c.95-.16 1.56.98.9 1.68l-12.86 13.48a.99.99 0 0 0-.26.87l3.22 18.35c.16.95-.98 1.56-1.68.9l-13.49-12.86a.97.97 0 0 0-.86-.26l-18.35 3.22c-.95.16-1.57-.98-.9-1.68l12.86-13.48a.99.99 0 0 0 .26-.87l-3.22-18.35ZM1068.05 4584.89c.3-.92 1.6-.92 1.9 0l5.82 17.7c.1.3.34.54.64.64l17.7 5.82c.92.3.92 1.6 0 1.9l-17.7 5.82c-.3.1-.54.34-.64.64l-5.82 17.7c-.3.92-1.6.92-1.9 0l-5.82-17.7c-.1-.3-.34-.54-.64-.64l-17.7-5.82c-.92-.3-.92-1.6 0-1.9l17.7-5.82c.3-.1.54-.34.64-.64l5.82-17.7ZM1100.05 4934.89c.3-.92 1.6-.92 1.9 0l5.82 17.7c.1.3.34.54.64.64l17.7 5.82c.92.3.92 1.6 0 1.9l-17.7 5.82c-.3.1-.54.34-.64.64l-5.82 17.7c-.3.92-1.6.92-1.9 0l-5.82-17.7c-.1-.3-.34-.54-.64-.64l-17.7-5.82c-.92-.3-.92-1.6 0-1.9l17.7-5.82c.3-.1.54-.34.64-.64l5.82-17.7ZM1754.05 5110.89c.3-.92 1.6-.92 1.9 0l5.82 17.7c.1.3.34.54.64.64l17.7 5.82c.92.3.92 1.6 0 1.9l-17.7 5.82c-.3.1-.54.34-.64.64l-5.82 17.7c-.3.92-1.6.92-1.9 0l-5.82-17.7c-.1-.3-.34-.54-.64-.64l-17.7-5.82c-.92-.3-.92-1.6 0-1.9l17.7-5.82c.3-.1.54-.34.64-.64l5.82-17.7ZM2167.05 4970.89c.3-.92 1.6-.92 1.9 0l.87 2.65c.1.3.34.54.64.64l2.65.87c.92.3.92 1.6 0 1.9l-2.65.87c-.3.1-.54.34-.64.64l-.87 2.65c-.3.92-1.6.92-1.9 0l-.87-2.65c-.1-.3-.34-.54-.64-.64l-2.65-.87c-.92-.3-.92-1.6 0-1.9l2.65-.87c.3-.1.54-.34.64-.64l.87-2.65ZM1418.05 5782.89c.3-.92 1.6-.92 1.9 0l5.82 17.7c.1.3.34.54.64.64l17.7 5.82c.92.3.92 1.6 0 1.9l-17.7 5.82c-.3.1-.54.34-.64.64l-5.82 17.7c-.3.92-1.6.92-1.9 0l-5.82-17.7c-.1-.3-.34-.54-.64-.64l-17.7-5.82c-.92-.3-.92-1.6 0-1.9l17.7-5.82c.3-.1.54-.34.64-.64l5.82-17.7ZM1362.05 5818.89c.3-.92 1.6-.92 1.9 0l5.82 17.7c.1.3.34.54.64.64l17.7 5.82c.92.3.92 1.6 0 1.9l-17.7 5.82c-.3.1-.54.34-.64.64l-5.82 17.7c-.3.92-1.6.92-1.9 0l-5.82-17.7c-.1-.3-.34-.54-.64-.64l-17.7-5.82c-.92-.3-.92-1.6 0-1.9l17.7-5.82c.3-.1.54-.34.64-.64l5.82-17.7ZM978.05 5982.89c.302-.92 1.598-.92 1.9 0l1.862 5.66c.099.3.336.54.638.64l5.662 1.86c.916.3.916 1.6 0 1.9l-5.662 1.86c-.302.1-.539.34-.638.64l-1.862 5.66c-.302.92-1.598.92-1.9 0l-1.862-5.66c-.099-.3-.336-.54-.638-.64l-5.662-1.86c-.916-.3-.916-1.6 0-1.9l5.662-1.86c.302-.1.539-.34.638-.64l1.862-5.66ZM2070.05 6018.89c.3-.92 1.6-.92 1.9 0l3.84 11.68c.1.3.34.54.64.64l11.68 3.84c.92.3.92 1.6 0 1.9l-11.68 3.84c-.3.1-.54.34-.64.64l-3.84 11.68c-.3.92-1.6.92-1.9 0l-3.84-11.68c-.1-.3-.34-.54-.64-.64l-11.68-3.84c-.92-.3-.92-1.6 0-1.9l11.68-3.84c.3-.1.54-.34.64-.64l3.84-11.68ZM2104.6 4564.33c-.03-.97 1.19-1.41 1.79-.65l1.72 2.2c.19.25.5.39.81.39l2.8-.08c.96-.03 1.4 1.19.64 1.78l-2.2 1.72c-.25.2-.39.5-.38.82l.08 2.79c.02.96-1.2 1.4-1.79.64l-1.72-2.19c-.2-.26-.5-.4-.82-.39l-2.79.08c-.96.03-1.4-1.19-.64-1.79l2.2-1.72c.25-.19.39-.5.38-.81l-.08-2.79ZM1077.55 1886.89c.3-.92 1.6-.92 1.9 0l1.74 5.28c.1.31.33.54.64.64l5.28 1.74c.92.3.92 1.6 0 1.9l-5.28 1.74c-.31.1-.54.33-.64.64l-1.74 5.28c-.3.92-1.6.92-1.9 0l-1.74-5.28a.975.975 0 0 0-.64-.64l-5.28-1.74c-.92-.3-.92-1.6 0-1.9l5.28-1.74c.31-.1.54-.33.64-.64l1.74-5.28Z" fill="#2BB32A"/><defs><filter id="filter0_f_1_9" x="703" y="0" width="2092" height="2092" filterUnits="userSpaceOnUse" color-interpolation-filters="sRGB"><feFlood flood-opacity="0" result="BackgroundImageFix"/><feBlend in="SourceGraphic" in2="BackgroundImageFix" result="shape"/><feGaussianBlur stdDeviation="400" result="effect1_foregroundBlur_1_9"/></filter><filter id="filter1_f_1_9" x="1129" y="1906" width="2092" height="2092" filterUnits="userSpaceOnUse" color-interpolation-filters="sRGB"><feFlood flood-opacity="0" result="BackgroundImageFix"/><feBlend in="SourceGraphic" in2="BackgroundImageFix" result="shape"/><feGaussianBlur stdDeviation="400" result="effect1_foregroundBlur_1_9"/></filter><filter id="filter2_f_1_9" x="0" y="3855" width="2092" height="2092" filterUnits="userSpaceOnUse" color-interpolation-filters="sRGB"><feFlood flood-opacity="0" result="BackgroundImageFix"/><feBlend in="SourceGraphic" in2="BackgroundImageFix" result="shape"/><feGaussianBlur stdDeviation="400" result="effect1_foregroundBlur_1_9"/></filter><filter id="filter3_f_1_9" x="48" y="3890" width="2092" height="2092" filterUnits="userSpaceOnUse" color-interpolation-filters="sRGB"><feFlood flood-opacity="0" result="BackgroundImageFix"/><feBlend in="SourceGraphic" in2="BackgroundImageFix" result="shape"/><feGaussianBlur stdDeviation="400" result="effect1_foregroundBlur_1_9"/></filter><filter id="filter4_f_1_9" x="1195" y="4958" width="1986" height="1986" filterUnits="userSpaceOnUse" color-interpolation-filters="sRGB"><feFlood flood-opacity="0" result="BackgroundImageFix"/><feBlend in="SourceGraphic" in2="BackgroundImageFix" result="shape"/><feGaussianBlur stdDeviation="400" result="effect1_foregroundBlur_1_9"/></filter></defs></svg>