<svg width="45" height="27" fill="none" xmlns="http://www.w3.org/2000/svg"><path fill-rule="evenodd" clip-rule="evenodd" d="M23.717 23.113c2.34-2.375 3.606-5.783 3.21-9.57-.398-3.787-2.378-7.195-5.216-9.57C23.806 1.847 26.763.548 30.159.548c7.19 0 13.629 5.818 14.381 12.995.752 7.177-4.467 12.995-11.657 12.995-3.396 0-6.625-1.299-9.166-3.425Zm0 0c-2.095 2.127-5.052 3.425-8.448 3.425-7.19 0-13.629-5.818-14.381-12.995C.136 6.366 5.355.548 12.545.548c3.396 0 6.625 1.299 9.166 3.425-2.34 2.375-3.606 5.783-3.209 9.57.397 3.787 2.377 7.195 5.215 9.57Z" fill="#fff"/></svg>