<svg width="19" height="19" viewBox="0 0 19 19" fill="none" xmlns="http://www.w3.org/2000/svg">
<g clip-path="url(#clip0_2311_1117)">
<path d="M8.44605 2.86707C9.76605 2.86707 11.0161 3.16707 12.1961 3.76707C13.3261 4.34707 14.2786 5.14957 15.0536 6.17457C15.8286 7.19957 16.3311 8.34707 16.5611 9.61707C16.3311 10.8871 15.8286 12.0346 15.0536 13.0596C14.2786 14.0846 13.3261 14.8871 12.1961 15.4671C11.0161 16.0671 9.76605 16.3671 8.44605 16.3671C7.12605 16.3671 5.87605 16.0671 4.69605 15.4671C3.56605 14.8871 2.61355 14.0846 1.83855 13.0596C1.06355 12.0346 0.561055 10.8871 0.331055 9.61707C0.561055 8.34707 1.06355 7.19957 1.83855 6.17457C2.61355 5.14957 3.56605 4.34707 4.69605 3.76707C5.87605 3.16707 7.12605 2.86707 8.44605 2.86707ZM8.44605 14.8671C9.48605 14.8671 10.4761 14.6371 11.4161 14.1771C12.3261 13.7371 13.0986 13.1171 13.7336 12.3171C14.3686 11.5171 14.8011 10.6171 15.0311 9.61707C14.8011 8.61707 14.3686 7.71707 13.7336 6.91707C13.0986 6.11707 12.3261 5.49707 11.4161 5.05707C10.4761 4.59707 9.48605 4.36707 8.44605 4.36707C7.40605 4.36707 6.41605 4.59707 5.47605 5.05707C4.56605 5.49707 3.79355 6.11707 3.15855 6.91707C2.52355 7.71707 2.09105 8.61707 1.86105 9.61707C2.09105 10.6171 2.52355 11.5171 3.15855 12.3171C3.79355 13.1171 4.56605 13.7371 5.47605 14.1771C6.41605 14.6371 7.40605 14.8671 8.44605 14.8671ZM8.44605 12.9921C7.83605 12.9921 7.27355 12.8396 6.75855 12.5346C6.24355 12.2296 5.83355 11.8196 5.52855 11.3046C5.22355 10.7896 5.07105 10.2271 5.07105 9.61707C5.07105 9.00707 5.22355 8.44457 5.52855 7.92957C5.83355 7.41457 6.24355 7.00457 6.75855 6.69957C7.27355 6.39457 7.83605 6.24207 8.44605 6.24207C9.05605 6.24207 9.61855 6.39457 10.1336 6.69957C10.6486 7.00457 11.0586 7.41457 11.3636 7.92957C11.6686 8.44457 11.8211 9.00707 11.8211 9.61707C11.8211 10.2271 11.6686 10.7896 11.3636 11.3046C11.0586 11.8196 10.6486 12.2296 10.1336 12.5346C9.61855 12.8396 9.05605 12.9921 8.44605 12.9921ZM8.44605 11.4921C8.78605 11.4921 9.09855 11.4071 9.38355 11.2371C9.66855 11.0671 9.89605 10.8396 10.0661 10.5546C10.2361 10.2696 10.3211 9.95707 10.3211 9.61707C10.3211 9.27707 10.2361 8.96457 10.0661 8.67957C9.89605 8.39457 9.66855 8.16707 9.38355 7.99707C9.09855 7.82707 8.78605 7.74207 8.44605 7.74207C8.10605 7.74207 7.79355 7.82707 7.50855 7.99707C7.22355 8.16707 6.99605 8.39457 6.82605 8.67957C6.65605 8.96457 6.57105 9.27707 6.57105 9.61707C6.57105 9.95707 6.65605 10.2696 6.82605 10.5546C6.99605 10.8396 7.22355 11.0671 7.50855 11.2371C7.79355 11.4071 8.10605 11.4921 8.44605 11.4921Z" fill="#666666"/>
</g>
<defs>
<clipPath id="clip0_2311_1117">
<rect width="18.02" height="18" fill="white" transform="matrix(1 0 0 -1 0.321289 18.6171)"/>
</clipPath>
</defs>
</svg>
