<svg width="25" height="25" viewBox="0 0 25 25" fill="none" xmlns="http://www.w3.org/2000/svg">
<path d="M10.9962 4.25098C4.12469 5.58431 3.5 12.251 3.5 12.251M3.5 12.251V16.5029C3.5 17.1981 3.5 17.5457 3.55736 17.8348C3.7937 19.026 4.72493 19.9573 5.91618 20.1936C6.20527 20.251 6.55289 20.251 7.24812 20.251V20.251C7.94335 20.251 8.29097 20.251 8.58006 20.1936C9.7713 19.9573 10.7025 19.026 10.9389 17.8348C10.9962 17.5457 10.9962 17.1981 10.9962 16.5029V16.251C10.9962 15.321 10.9962 14.856 10.894 14.4745C10.6166 13.4392 9.80797 12.6306 8.7727 12.3532C8.3912 12.251 7.92621 12.251 6.99624 12.251H3.5Z" stroke="white" stroke-width="1.5"/>
<path d="M21.5 4.25098C14.6285 5.58431 14.0038 12.251 14.0038 12.251M14.0038 12.251V16.5029C14.0038 17.1981 14.0038 17.5457 14.0611 17.8348C14.2975 19.026 15.2287 19.9573 16.4199 20.1936C16.709 20.251 17.0567 20.251 17.7519 20.251V20.251C18.4471 20.251 18.7947 20.251 19.0838 20.1936C20.2751 19.9573 21.2063 19.026 21.4427 17.8348C21.5 17.5457 21.5 17.1981 21.5 16.5029V16.251C21.5 15.321 21.5 14.856 21.3978 14.4745C21.1204 13.4392 20.3117 12.6306 19.2765 12.3532C18.895 12.251 18.43 12.251 17.5 12.251H14.0038Z" stroke="white" stroke-width="1.5"/>
</svg>
