<svg width="25" height="25" fill="none" xmlns="http://www.w3.org/2000/svg"><path d="M10.996 4.251c-6.871 1.333-7.496 8-7.496 8m0 0v4.252c0 .695 0 1.043.057 1.332a3 3 0 0 0 2.36 2.359c.288.057.636.057 1.331.057s1.043 0 1.332-.057a3 3 0 0 0 2.359-2.36c.057-.288.057-.636.057-1.331v-.252c0-.93 0-1.395-.102-1.777a3 3 0 0 0-2.121-2.12c-.382-.103-.847-.103-1.777-.103H3.5ZM21.5 4.251c-6.871 1.333-7.496 8-7.496 8m0 0v4.252c0 .695 0 1.043.057 1.332a3 3 0 0 0 2.359 2.359c.289.057.637.057 1.332.057.695 0 1.043 0 1.332-.057a3 3 0 0 0 2.359-2.36c.057-.288.057-.636.057-1.331v-.252c0-.93 0-1.395-.102-1.777a3 3 0 0 0-2.122-2.12c-.381-.103-.846-.103-1.776-.103h-3.496Z" stroke="#fff" stroke-width="1.5"/></svg>