<svg width="28" height="26" fill="none" xmlns="http://www.w3.org/2000/svg"><path fill-rule="evenodd" clip-rule="evenodd" d="M9.658 3.383c.903-.472 2.365-.472 3.27 0l7.73 4.041c.903.472 1.635 1.654 1.635 2.64v7.931c0 .986-.73 2.166-1.635 2.639l-7.73 4.04c-.903.473-2.366.474-3.27 0l-7.73-4.04C1.024 20.162.292 18.98.292 17.995v-7.932c0-.985.73-2.166 1.634-2.639l7.731-4.04Z" fill="#fff"/><path d="M20.5 15.565c3.981 0 7.207-3.267 7.207-7.297 0-4.03-3.226-7.297-7.206-7.297-3.98 0-7.207 3.267-7.207 7.297 0 4.03 3.227 7.297 7.207 7.297Z" fill="#1D9BF0"/><path fill-rule="evenodd" clip-rule="evenodd" d="M12.962 19.178v-6.18c0-.56.423-1.003.958-1.003.535 0 .958.443.958 1.003v6.18c0 .56-.423 1.002-.958 1.002-.535 0-.958-.443-.958-1.002Zm-1.495-3.047c0 2.76-1.481 4.114-3.82 4.114-2.34 0-3.77-1.367-3.77-4.05v-3.197c0-.56.424-1.003.959-1.003.534 0 .958.443.958 1.003v3.146c0 1.485.708 2.253 1.878 2.253 1.169 0 1.878-.743 1.878-2.188v-3.21c0-.561.423-1.004.958-1.004.535 0 .959.443.959 1.003v3.133Z" fill="#1C1C1C"/><path fill-rule="evenodd" clip-rule="evenodd" d="M20.503 11.147c-1.217 0-2.12-.66-2.12-1.665v-.017c0-.7.306-1.113.887-1.393-.424-.272-.7-.643-.7-1.262v-.017c0-.88.77-1.582 1.933-1.582 1.161 0 1.931.693 1.931 1.583v.017c0 .618-.274.989-.698 1.261.557.306.887.676.887 1.36v.017c0 1.07-.904 1.698-2.12 1.698Zm0-3.495c.479 0 .785-.297.785-.702v-.017c0-.353-.291-.675-.785-.675-.495 0-.786.314-.786.668v.017c0 .403.306.709.786.709Zm0 2.448c.597 0 .95-.314.95-.718v-.016c0-.445-.4-.709-.95-.709-.55 0-.95.264-.95.71v.016c0 .395.353.717.95.717Z" fill="#fff"/></svg>