<svg width="33" height="32" fill="none" xmlns="http://www.w3.org/2000/svg"><path d="M13.167 28h-6v-4.352c0-2.25 0-3.375.573-4.164.185-.254.409-.478.663-.663.789-.573 1.914-.573 4.164-.573h.6v-.115c0-2.492 0-3.738.536-4.666a3.999 3.999 0 0 1 1.464-1.464c.928-.536 2.174-.536 4.666-.536V7a3 3 0 0 1 6 0v21H13.167Z" fill="#fff"/><path d="M28.5 28h-2.667M4.5 28h2.667m12.666 0h-6.666m6.666 0V11.467m0 16.533h6m-12.666 0h-6m6 0v-9.752m-6 9.752v-4.352c0-2.25 0-3.375.573-4.164.185-.254.409-.478.663-.663.789-.573 1.914-.573 4.164-.573h.6m0 0v-.115c0-2.492 0-3.738.536-4.666a3.999 3.999 0 0 1 1.464-1.464c.928-.536 2.174-.536 4.666-.536v0m0 0V7a3 3 0 0 1 3-3v0a3 3 0 0 1 3 3v21" stroke="#fff" stroke-width="1.5" stroke-linecap="round"/></svg>