<svg width="33" height="32" fill="none" xmlns="http://www.w3.org/2000/svg"><path d="M15.046 6.242c.833-.898 1.25-1.346 1.587-1.402a.82.82 0 0 1 .329 0c.338.058.754.51 1.585 1.415.85.924 1.93 1.86 3.049 2.21.902.283 2.123.278 3.107.205.761-.056 1.142-.084 1.406.066.088.05.162.107.231.18.21.22.266.55.38 1.21.405 2.353.893 6.685-.334 9.502-1.131 2.596-4.2 5.01-6.563 6.573-1.11.735-1.666 1.102-2.577 1.224-.24.032-.66.04-.901.018-.915-.086-1.486-.431-2.627-1.123-2.53-1.533-5.883-3.97-7.092-6.692-1.245-2.805-.752-7.13-.34-9.489.115-.665.173-.998.386-1.219a.98.98 0 0 1 .236-.18c.268-.148.65-.114 1.413-.045 1.14.103 2.625.132 3.694-.23 1.107-.374 2.181-1.307 3.031-2.223Z" fill="#fff" stroke="#fff" stroke-width="1.5" stroke-linejoin="round"/></svg>