<svg width="51" height="51" viewBox="0 0 51 51" fill="none" xmlns="http://www.w3.org/2000/svg">
<rect x="0.492188" y="0.617065" width="50" height="50" rx="25" fill="#00715D"/>
<g clip-path="url(#clip0_2311_1098)">
<path d="M29.5322 30.0771L33.8122 34.3571L32.3922 35.7771L28.1122 31.4971C27.3255 32.1237 26.4655 32.6037 25.5322 32.9371C24.5455 33.2837 23.5322 33.4571 22.4922 33.4571C20.8655 33.4571 19.3522 33.0504 17.9522 32.2371C16.5922 31.4371 15.5189 30.3571 14.7322 28.9971C13.9055 27.5971 13.4922 26.0837 13.4922 24.4571C13.4922 22.8304 13.9055 21.3171 14.7322 19.9171C15.5189 18.5571 16.5922 17.4837 17.9522 16.6971C19.3522 15.8704 20.8655 15.4571 22.4922 15.4571C24.1189 15.4571 25.6322 15.8704 27.0322 16.6971C28.3922 17.4837 29.4722 18.5571 30.2722 19.9171C31.0855 21.3171 31.4922 22.8304 31.4922 24.4571C31.4922 25.4971 31.3189 26.5104 30.9722 27.4971C30.6389 28.4304 30.1589 29.2904 29.5322 30.0771ZM27.5122 29.3371C28.1389 28.6971 28.6255 27.9637 28.9722 27.1371C29.3189 26.2837 29.4922 25.3904 29.4922 24.4571C29.4922 23.1904 29.1722 22.0104 28.5322 20.9171C27.9189 19.8637 27.0855 19.0304 26.0322 18.4171C24.9389 17.7771 23.7589 17.4571 22.4922 17.4571C21.2255 17.4571 20.0455 17.7771 18.9522 18.4171C17.8989 19.0304 17.0655 19.8637 16.4522 20.9171C15.8122 22.0104 15.4922 23.1904 15.4922 24.4571C15.4922 25.7237 15.8122 26.9037 16.4522 27.9971C17.0655 29.0504 17.8989 29.8837 18.9522 30.4971C20.0455 31.1371 21.2255 31.4571 22.4922 31.4571C23.4255 31.4571 24.3189 31.2837 25.1722 30.9371C25.9989 30.5904 26.7322 30.1037 27.3722 29.4771L27.5122 29.3371Z" fill="white"/>
</g>
<defs>
<clipPath id="clip0_2311_1098">
<rect width="24" height="24" fill="white" transform="matrix(1 0 0 -1 13.4922 37.6171)"/>
</clipPath>
</defs>
</svg>
