<svg width="39" height="37" viewBox="0 0 39 37" fill="none" xmlns="http://www.w3.org/2000/svg">
<rect x="0.681641" y="0.617065" width="38" height="36" rx="10" fill="#2E3433"/>
<g clip-path="url(#clip0_2311_1171)">
<path d="M16.3483 19.617H18.015L18.6816 16.9504H16.3483V15.617C16.3483 15.3148 16.3616 15.097 16.3883 14.9637C16.4416 14.7504 16.5572 14.5859 16.735 14.4704C16.9483 14.3459 17.2639 14.2837 17.6816 14.2837H18.6816V12.0437C18.5305 12.0259 18.2905 12.0081 17.9616 11.9904C17.5528 11.9637 17.1572 11.9504 16.775 11.9504C16.1616 11.9504 15.6216 12.0726 15.155 12.317C14.6883 12.5615 14.3305 12.9104 14.0816 13.3637C13.815 13.8526 13.6816 14.4259 13.6816 15.0837V16.9504H11.6816V19.617H13.6816V25.2837H16.3483V19.617Z" fill="white"/>
</g>
<defs>
<clipPath id="clip0_2311_1171">
<rect width="16" height="16" fill="white" transform="matrix(1 0 0 -1 11.6816 26.6171)"/>
</clipPath>
</defs>
</svg>
