<svg width="39" height="37" viewBox="0 0 39 37" fill="none" xmlns="http://www.w3.org/2000/svg">
<rect x="0.681641" y="0.617065" width="38" height="36" rx="10" fill="#2E3433"/>
<g clip-path="url(#clip0_2311_1177)">
<path d="M18.3483 16.617C17.9839 16.617 17.6483 16.7059 17.3416 16.8837C17.035 17.0615 16.7928 17.3037 16.615 17.6104C16.4372 17.917 16.3483 18.2526 16.3483 18.617C16.3483 18.9815 16.4372 19.317 16.615 19.6237C16.7928 19.9304 17.035 20.1726 17.3416 20.3504C17.6483 20.5281 17.9839 20.617 18.3483 20.617C18.7128 20.617 19.0483 20.5281 19.355 20.3504C19.6616 20.1726 19.9039 19.9304 20.0816 19.6237C20.2594 19.317 20.3483 18.9815 20.3483 18.617C20.3483 18.2526 20.2594 17.917 20.0816 17.6104C19.9039 17.3037 19.6616 17.0615 19.355 16.8837C19.0483 16.7059 18.7128 16.617 18.3483 16.617ZM18.3483 15.2837C18.9528 15.2837 19.5105 15.4326 20.0216 15.7304C20.5328 16.0281 20.9372 16.4326 21.235 16.9437C21.5328 17.4548 21.6816 18.0126 21.6816 18.617C21.6816 19.2215 21.5328 19.7792 21.235 20.2904C20.9372 20.8015 20.5328 21.2059 20.0216 21.5037C19.5105 21.8015 18.9528 21.9504 18.3483 21.9504C17.7439 21.9504 17.1861 21.8015 16.675 21.5037C16.1639 21.2059 15.7594 20.8015 15.4616 20.2904C15.1639 19.7792 15.015 19.2215 15.015 18.617C15.015 18.0126 15.1639 17.4548 15.4616 16.9437C15.7594 16.4326 16.1639 16.0281 16.675 15.7304C17.1861 15.4326 17.7439 15.2837 18.3483 15.2837ZM22.6816 15.1104C22.6816 15.3415 22.5994 15.5392 22.435 15.7037C22.2705 15.8681 22.075 15.9504 21.8483 15.9504C21.6216 15.9504 21.4261 15.8681 21.2616 15.7037C21.0972 15.5392 21.015 15.3437 21.015 15.117C21.015 14.8904 21.0972 14.6948 21.2616 14.5304C21.4261 14.3659 21.6216 14.2837 21.8483 14.2837C22.075 14.2837 22.2705 14.3659 22.435 14.5304C22.5994 14.6948 22.6816 14.8881 22.6816 15.1104ZM18.3483 13.2837C17.5305 13.2837 16.975 13.2859 16.6816 13.2904C16.3883 13.2948 16.0505 13.3059 15.6683 13.3237C15.1883 13.3415 14.7883 13.4126 14.4683 13.537C14.1928 13.6437 13.9505 13.8015 13.7416 14.0104C13.5328 14.2192 13.375 14.4615 13.2683 14.737C13.1439 15.057 13.0728 15.457 13.055 15.937C13.0372 16.3015 13.0261 16.6281 13.0216 16.917C13.0172 17.2059 13.015 17.7726 13.015 18.617C13.015 19.4348 13.0172 19.9904 13.0216 20.2837C13.0261 20.577 13.0372 20.9148 13.055 21.297C13.0728 21.777 13.1439 22.177 13.2683 22.497C13.375 22.7726 13.5328 23.0148 13.7416 23.2237C13.9505 23.4326 14.1928 23.5859 14.4683 23.6837C14.7883 23.817 15.1883 23.8926 15.6683 23.9104C16.0328 23.9281 16.3594 23.9392 16.6483 23.9437C16.9372 23.9481 17.5039 23.9504 18.3483 23.9504C19.1661 23.9504 19.7216 23.9481 20.015 23.9437C20.3083 23.9392 20.6461 23.9281 21.0283 23.9104C21.5083 23.8926 21.9083 23.8215 22.2283 23.697C22.5039 23.5904 22.7461 23.4326 22.955 23.2237C23.1639 23.0148 23.3172 22.7726 23.415 22.497C23.5483 22.177 23.6239 21.777 23.6416 21.297C23.6594 20.9326 23.6705 20.6059 23.675 20.317C23.6794 20.0281 23.6816 19.4615 23.6816 18.617C23.6816 17.7992 23.6794 17.2437 23.675 16.9504C23.6705 16.657 23.6594 16.3192 23.6416 15.937C23.6239 15.457 23.5528 15.057 23.4283 14.737C23.3216 14.4615 23.1639 14.2192 22.955 14.0104C22.7461 13.8015 22.5039 13.6437 22.2283 13.537C21.9083 13.4126 21.5083 13.3415 21.0283 13.3237C20.6639 13.3059 20.3372 13.2948 20.0483 13.2904C19.7594 13.2859 19.1928 13.2837 18.3483 13.2837ZM18.3483 11.9504C19.2194 11.9504 19.815 11.9548 20.135 11.9637C20.4016 11.9637 20.7216 11.9726 21.095 11.9904C21.7172 12.017 22.255 12.1192 22.7083 12.297C23.1616 12.4748 23.5572 12.7326 23.895 13.0704C24.2328 13.4081 24.4905 13.8037 24.6683 14.257C24.8461 14.7104 24.9483 15.2481 24.975 15.8704C24.9928 16.2526 25.0016 16.5726 25.0016 16.8304C25.0105 17.1681 25.015 17.7681 25.015 18.6304C25.015 19.4926 25.0105 20.0837 25.0016 20.4037C25.0016 20.6704 24.9928 20.9904 24.975 21.3637C24.9483 21.9859 24.8461 22.5237 24.6683 22.977C24.4905 23.4304 24.2328 23.8259 23.895 24.1637C23.5572 24.5015 23.1616 24.7592 22.7083 24.937C22.255 25.1148 21.7172 25.217 21.095 25.2437C20.7128 25.2615 20.3928 25.2704 20.135 25.2704C19.7972 25.2792 19.1972 25.2837 18.335 25.2837C17.4728 25.2837 16.8816 25.2792 16.5616 25.2704C16.295 25.2704 15.975 25.2615 15.6016 25.2437C14.9794 25.217 14.4416 25.1148 13.9883 24.937C13.535 24.7592 13.1394 24.5015 12.8016 24.1637C12.4639 23.8259 12.2061 23.4304 12.0283 22.977C11.8505 22.5237 11.7483 21.9859 11.7216 21.3637C11.7039 20.9815 11.695 20.6615 11.695 20.4037C11.6861 20.0659 11.6816 19.4659 11.6816 18.6037C11.6816 17.7415 11.6861 17.1504 11.695 16.8304C11.695 16.5637 11.7039 16.2437 11.7216 15.8704C11.7483 15.2481 11.8505 14.7104 12.0283 14.257C12.2061 13.8037 12.4639 13.4081 12.8016 13.0704C13.1394 12.7326 13.535 12.4748 13.9883 12.297C14.4416 12.1192 14.9794 12.017 15.6016 11.9904C15.9839 11.9726 16.3039 11.9637 16.5616 11.9637C16.8994 11.9548 17.495 11.9504 18.3483 11.9504Z" fill="white"/>
</g>
<defs>
<clipPath id="clip0_2311_1177">
<rect width="16" height="16" fill="white" transform="matrix(1 0 0 -1 11.6816 26.6171)"/>
</clipPath>
</defs>
</svg>
