<svg width="31" height="31" viewBox="0 0 31 31" fill="none" xmlns="http://www.w3.org/2000/svg">
<rect x="0.12207" y="0.617065" width="30" height="30" rx="5" fill="#2E3433"/>
<g clip-path="url(#clip0_2311_1142)">
<path d="M8.69564 9.86707H19.1956C19.359 9.86707 19.497 9.92345 19.6098 10.0362C19.7226 10.149 19.779 10.2871 19.779 10.4504V19.7837C19.779 19.9471 19.7226 20.0851 19.6098 20.1979C19.497 20.3107 19.359 20.3671 19.1956 20.3671H8.69564C8.5323 20.3671 8.39425 20.3107 8.28147 20.1979C8.16869 20.0851 8.1123 19.9471 8.1123 19.7837V10.4504C8.1123 10.2871 8.16869 10.149 8.28147 10.0362C8.39425 9.92345 8.5323 9.86707 8.69564 9.86707ZM13.9806 14.9304L10.2356 11.7571L9.48897 12.6437L13.9923 16.4704L18.414 12.6437L17.644 11.7571L13.9806 14.9304Z" fill="white"/>
</g>
<defs>
<clipPath id="clip0_2311_1142">
<rect width="14.02" height="14" fill="white" transform="matrix(1 0 0 -1 8.10254 22.1171)"/>
</clipPath>
</defs>
</svg>
