<svg width="39" height="37" viewBox="0 0 39 37" fill="none" xmlns="http://www.w3.org/2000/svg">
<rect x="0.681641" y="0.617065" width="38" height="36" rx="10" fill="#2E3433"/>
<g clip-path="url(#clip0_2311_1174)">
<path d="M18.5083 13.2838C19.2728 13.2838 20.0061 13.3015 20.7083 13.3371L21.0416 13.3504C22.215 13.4038 23.0061 13.4882 23.415 13.6038C23.735 13.6927 24.0105 13.8571 24.2416 14.0971C24.4728 14.3371 24.6283 14.6216 24.7083 14.9504C24.8239 15.3949 24.9083 16.0571 24.9616 16.9371C24.9883 17.4527 25.0061 17.9771 25.015 18.5104V18.7238C25.0061 19.2571 24.9883 19.7816 24.9616 20.2971C24.9083 21.1771 24.8239 21.8393 24.7083 22.2838C24.6283 22.6127 24.4728 22.8971 24.2416 23.1371C24.0105 23.3771 23.735 23.5416 23.415 23.6304C23.0061 23.746 22.215 23.8304 21.0416 23.8838L20.7083 23.8971C20.0061 23.9238 19.2728 23.9416 18.5083 23.9504H18.1883C17.3616 23.9416 16.575 23.9238 15.8283 23.8971C14.5572 23.8438 13.7083 23.7549 13.2816 23.6304C12.9616 23.5416 12.6861 23.3771 12.455 23.1371C12.2239 22.8971 12.0683 22.6127 11.9883 22.2838C11.8728 21.8393 11.7883 21.1771 11.735 20.2971C11.7083 19.7816 11.6905 19.2571 11.6816 18.7238V18.5104C11.6905 17.9771 11.7083 17.4527 11.735 16.9371C11.7883 16.0571 11.8728 15.3949 11.9883 14.9504C12.0683 14.6216 12.2239 14.3371 12.455 14.0971C12.6861 13.8571 12.9616 13.6927 13.2816 13.6038C13.7083 13.4793 14.5572 13.3904 15.8283 13.3371C16.5661 13.3104 17.3528 13.2927 18.1883 13.2838H18.5083ZM17.015 16.2838V20.9504L21.015 18.6171L17.015 16.2838Z" fill="white"/>
</g>
<defs>
<clipPath id="clip0_2311_1174">
<rect width="16" height="16" fill="white" transform="matrix(1 0 0 -1 11.6816 26.6171)"/>
</clipPath>
</defs>
</svg>
