<svg width="31" height="31" viewBox="0 0 31 31" fill="none" xmlns="http://www.w3.org/2000/svg">
<rect x="0.12207" y="0.617065" width="30" height="30" rx="5" fill="#2E3433"/>
<g clip-path="url(#clip0_2311_1146)">
<path d="M18.6123 17.6954V19.7604C18.6123 19.9082 18.5598 20.0385 18.4548 20.1512C18.3498 20.264 18.2234 20.3282 18.0756 20.3437C17.819 20.3593 17.609 20.3671 17.4456 20.3671C16.1779 20.3671 14.9684 20.1221 13.8173 19.6321C12.6973 19.1576 11.7076 18.4907 10.8481 17.6312C9.98869 16.7718 9.32175 15.7821 8.8473 14.6621C8.3573 13.511 8.1123 12.3015 8.1123 11.0337C8.1123 10.8704 8.12008 10.6604 8.13564 10.4037C8.15119 10.256 8.21536 10.1296 8.32814 10.0246C8.44092 9.91957 8.57119 9.86707 8.71897 9.86707H10.784C10.8617 9.86707 10.9279 9.89234 10.9823 9.9429C11.0367 9.99345 11.0679 10.0537 11.0756 10.1237L11.1106 10.4504C11.2273 11.2671 11.4606 12.0448 11.8106 12.7837C11.8417 12.846 11.8495 12.9082 11.834 12.9704C11.8184 13.0326 11.7834 13.0832 11.729 13.1221L10.469 14.0204C10.8501 14.9148 11.3867 15.7082 12.079 16.4004C12.7712 17.0926 13.5645 17.6293 14.459 18.0104L15.3573 16.7504C15.3962 16.696 15.4467 16.661 15.509 16.6454C15.5712 16.6298 15.6334 16.6376 15.6956 16.6687C16.4345 17.0187 17.2123 17.2521 18.029 17.3687L18.3556 17.4037C18.4256 17.4115 18.4859 17.4426 18.5365 17.4971C18.587 17.5515 18.6123 17.6176 18.6123 17.6954Z" fill="white"/>
</g>
<defs>
<clipPath id="clip0_2311_1146">
<rect width="14.02" height="14" fill="white" transform="matrix(1 0 0 -1 8.10254 22.1171)"/>
</clipPath>
</defs>
</svg>
