<svg width="31" height="31" viewBox="0 0 31 31" fill="none" xmlns="http://www.w3.org/2000/svg">
<rect x="0.12207" y="0.617065" width="30" height="30" rx="5" fill="#2E3433"/>
<g clip-path="url(#clip0_2311_1150)">
<path d="M17.0723 17.742L13.3623 21.452L9.6523 17.742C8.97564 17.0731 8.52064 16.2798 8.2873 15.362C8.05397 14.4754 8.05397 13.5887 8.2873 12.702C8.52064 11.7842 8.97369 10.989 9.64647 10.3162C10.3192 9.64342 11.1145 9.18647 12.0323 8.94536C12.919 8.7198 13.8056 8.7198 14.6923 8.94536C15.6101 9.18647 16.4054 9.64342 17.0781 10.3162C17.7509 10.989 18.204 11.7842 18.4373 12.702C18.6706 13.5887 18.6706 14.4754 18.4373 15.362C18.204 16.2798 17.749 17.0731 17.0723 17.742ZM13.3623 15.1987C13.5723 15.1987 13.7667 15.1462 13.9456 15.0412C14.1245 14.9362 14.2665 14.7942 14.3715 14.6154C14.4765 14.4365 14.529 14.242 14.529 14.032C14.529 13.822 14.4765 13.6276 14.3715 13.4487C14.2665 13.2698 14.1245 13.1279 13.9456 13.0229C13.7667 12.9179 13.5723 12.8654 13.3623 12.8654C13.1523 12.8654 12.9579 12.9179 12.779 13.0229C12.6001 13.1279 12.4581 13.2698 12.3531 13.4487C12.2481 13.6276 12.1956 13.822 12.1956 14.032C12.1956 14.242 12.2481 14.4365 12.3531 14.6154C12.4581 14.7942 12.6001 14.9362 12.779 15.0412C12.9579 15.1462 13.1523 15.1987 13.3623 15.1987Z" fill="white"/>
</g>
<defs>
<clipPath id="clip0_2311_1150">
<rect width="14.02" height="14" fill="white" transform="matrix(1 0 0 -1 8.10254 22.1171)"/>
</clipPath>
</defs>
</svg>
