<svg width="39" height="37" viewBox="0 0 39 37" fill="none" xmlns="http://www.w3.org/2000/svg">
<rect x="0.681641" y="0.617065" width="38" height="36" rx="10" fill="#2E3433"/>
<g clip-path="url(#clip0_2311_1180)">
<path d="M14.3546 13.9504C14.3457 14.226 14.2657 14.4748 14.1146 14.6971C13.9635 14.9193 13.7635 15.0815 13.5146 15.1837C13.2657 15.286 13.0079 15.3104 12.7412 15.2571C12.4746 15.2037 12.2457 15.0793 12.0546 14.8837C11.8635 14.6882 11.7457 14.4571 11.7012 14.1904C11.6568 13.9237 11.6879 13.666 11.7946 13.4171C11.9012 13.1682 12.0701 12.9704 12.3012 12.8237C12.5324 12.6771 12.7857 12.6082 13.0612 12.6171C13.4168 12.626 13.7212 12.7593 13.9746 13.0171C14.2279 13.2748 14.3546 13.586 14.3546 13.9504ZM14.3946 16.2704H11.7279V24.6171H14.3946V16.2704ZM18.6079 16.2704H15.9546V24.6171H18.5812V20.2437C18.5812 19.7726 18.6879 19.3726 18.9012 19.0437C19.1057 18.7415 19.3679 18.5326 19.6879 18.4171C20.0079 18.3015 20.3279 18.2926 20.6479 18.3904C20.9679 18.4882 21.2257 18.6837 21.4212 18.9771C21.6435 19.3148 21.7546 19.7371 21.7546 20.2437V24.6171H24.3946V19.3371C24.3946 18.5548 24.2257 17.8926 23.8879 17.3504C23.5946 16.8793 23.1857 16.5237 22.6612 16.2837C22.1812 16.0793 21.6612 15.9904 21.1012 16.0171C20.559 16.0437 20.0568 16.1793 19.5946 16.4237C19.1324 16.6682 18.7946 16.9904 18.5812 17.3904L18.6079 16.2704Z" fill="white"/>
</g>
<defs>
<clipPath id="clip0_2311_1180">
<rect width="16" height="16" fill="white" transform="matrix(1 0 0 -1 11.6816 26.6171)"/>
</clipPath>
</defs>
</svg>
