<svg width="33" height="32" viewBox="0 0 33 32" fill="none" xmlns="http://www.w3.org/2000/svg">
<path d="M28.25 16C28.3881 16 28.5003 16.1119 28.4974 16.25C28.4531 18.3762 27.8444 20.4541 26.7317 22.2699C25.5754 24.1569 23.9198 25.6873 21.9479 26.692C19.976 27.6967 17.7647 28.1366 15.5585 27.963C13.3523 27.7893 11.237 27.009 9.44658 25.7082C7.65617 24.4074 6.26036 22.6368 5.41345 20.5922C4.56655 18.5476 4.30154 16.3086 4.64774 14.1227C4.99394 11.9369 5.93786 9.88941 7.37513 8.20658C8.75824 6.58717 10.5464 5.36618 12.5548 4.66701C12.6852 4.62162 12.8264 4.69373 12.8691 4.82504L15.9948 14.4452C16.2961 15.3723 17.16 16 18.1347 16H28.25Z" fill="white" stroke="white" stroke-width="1.5"/>
<path d="M17.6445 4.59672C17.6018 4.46541 17.6736 4.32394 17.8062 4.28577C18.8363 3.98949 19.9199 3.92234 20.9805 4.09033C22.1235 4.27136 23.2075 4.72035 24.1437 5.40058C25.08 6.08081 25.842 6.97297 26.3674 8.00411C26.8549 8.96092 27.1259 10.0122 27.1624 11.0834C27.1671 11.2214 27.0547 11.3334 26.9167 11.3334L20.7415 11.3334C20.2 11.3334 19.72 10.9847 19.5527 10.4696L17.6445 4.59672Z" fill="white" stroke="white" stroke-width="1.5"/>
</svg>
