<svg width="124" height="33" fill="none" xmlns="http://www.w3.org/2000/svg"><path d="M19.988 15.13c-.033-3.532 2.966-5.25 3.103-5.33-1.698-2.415-4.33-2.745-5.256-2.771-2.211-.227-4.356 1.29-5.482 1.29-1.15 0-2.884-1.268-4.753-1.23-2.406.035-4.656 1.393-5.89 3.502-2.548 4.3-.648 10.618 1.793 14.094 1.22 1.702 2.647 3.602 4.514 3.535 1.827-.073 2.509-1.135 4.713-1.135 2.184 0 2.825 1.135 4.73 1.092 1.96-.03 3.194-1.71 4.372-3.427 1.411-1.95 1.978-3.872 2-3.97-.046-.016-3.807-1.415-3.844-5.65ZM16.39 4.743c.983-1.198 1.655-2.828 1.468-4.482-1.422.062-3.2.96-4.224 2.13-.906 1.033-1.715 2.726-1.506 4.317 1.597.116 3.237-.786 4.262-1.965ZM41.258 4.417c0 1.29-.397 2.261-1.19 2.913-.733.602-1.777.904-3.128.904-.67 0-1.243-.029-1.723-.086V1.1c.626-.099 1.3-.15 2.029-.15 1.287 0 2.257.274 2.911.82.733.616 1.1 1.499 1.1 2.647Zm-1.242.032c0-.836-.227-1.477-.681-1.925-.455-.446-1.118-.67-1.991-.67a5.11 5.11 0 0 0-.949.075v5.359c.145.022.41.031.796.031.901 0 1.597-.244 2.087-.733.49-.489.738-1.201.738-2.137ZM47.844 5.544c0 .795-.233 1.446-.698 1.956-.488.525-1.134.787-1.941.787-.778 0-1.398-.25-1.86-.755-.46-.503-.69-1.138-.69-1.903 0-.8.236-1.456.713-1.966.476-.51 1.117-.765 1.924-.765.778 0 1.403.251 1.877.754.45.49.675 1.12.675 1.892Zm-1.222.037c0-.477-.105-.885-.316-1.226-.247-.412-.599-.618-1.056-.618-.474 0-.833.206-1.08.618-.212.34-.317.756-.317 1.247 0 .477.106.886.316 1.226.256.413.61.619 1.07.619.449 0 .802-.21 1.056-.63.218-.347.327-.759.327-1.236ZM56.675 3.003 55.017 8.17h-1.08l-.686-2.244a16.438 16.438 0 0 1-.426-1.669h-.021a11.971 11.971 0 0 1-.426 1.67l-.73 2.243h-1.092l-1.559-5.167h1.211l.6 2.457c.144.58.263 1.134.359 1.658h.021c.088-.432.233-.982.438-1.647l.752-2.466h.96l.72 2.413c.174.588.316 1.155.425 1.7h.033c.08-.53.2-1.097.36-1.7l.642-2.413h1.157v-.002ZM62.782 8.17h-1.178V5.21c0-.911-.355-1.367-1.068-1.367-.35 0-.631.125-.85.376a1.314 1.314 0 0 0-.328.885V8.17H58.18v-3.69c0-.453-.014-.945-.042-1.478h1.035l.055.808h.032c.138-.251.342-.458.61-.624a2.03 2.03 0 0 1 1.069-.29c.494 0 .906.156 1.233.468.407.382.61.953.61 1.712V8.17ZM66.031 8.17h-1.177V.633h1.177V8.17ZM72.967 5.544c0 .795-.233 1.446-.698 1.956-.488.525-1.136.787-1.942.787-.779 0-1.398-.25-1.859-.755-.46-.503-.691-1.138-.691-1.903 0-.8.237-1.456.713-1.966.477-.51 1.118-.765 1.924-.765.779 0 1.403.251 1.877.754.45.49.676 1.12.676 1.892Zm-1.223.037c0-.477-.106-.885-.316-1.226-.246-.412-.6-.618-1.056-.618-.474 0-.834.206-1.08.618-.211.34-.316.756-.316 1.247 0 .477.106.886.316 1.226.255.413.61.619 1.069.619.45 0 .801-.21 1.055-.63.22-.347.328-.759.328-1.236ZM78.668 8.17H77.61l-.087-.595h-.033c-.362.474-.878.712-1.548.712-.5 0-.905-.156-1.21-.468a1.447 1.447 0 0 1-.414-1.052c0-.631.27-1.112.813-1.446.541-.333 1.304-.496 2.285-.488v-.097c0-.68-.367-1.02-1.1-1.02-.523 0-.984.128-1.382.382l-.24-.754c.493-.297 1.1-.446 1.818-.446 1.385 0 2.08.713 2.08 2.137v1.903c0 .516.026.927.076 1.232Zm-1.223-1.776v-.796c-1.3-.022-1.95.325-1.95 1.04 0 .27.075.472.227.607a.837.837 0 0 0 .575.202c.259 0 .5-.08.721-.24a.977.977 0 0 0 .427-.813ZM85.362 8.17h-1.045l-.055-.83h-.033c-.334.632-.903.947-1.702.947-.638 0-1.17-.244-1.591-.733-.422-.489-.632-1.123-.632-1.903 0-.836.228-1.513.687-2.03a2.135 2.135 0 0 1 1.635-.724c.712 0 1.21.234 1.493.702h.022V.633h1.18v6.145c0 .503.013.967.041 1.392Zm-1.22-2.179V5.13c0-.15-.012-.27-.033-.362a1.303 1.303 0 0 0-.426-.696 1.176 1.176 0 0 0-.788-.282c-.44 0-.784.17-1.037.511-.25.341-.377.776-.377 1.308 0 .51.12.925.362 1.244.255.34.599.51 1.03.51.386 0 .695-.142.93-.426.227-.262.338-.578.338-.946ZM95.438 5.544c0 .795-.233 1.446-.698 1.956-.488.525-1.134.787-1.942.787-.777 0-1.396-.25-1.86-.755-.46-.503-.69-1.138-.69-1.903 0-.8.237-1.456.713-1.966.477-.51 1.118-.765 1.926-.765.777 0 1.403.251 1.875.754.45.49.676 1.12.676 1.892Zm-1.221.037c0-.477-.106-.885-.316-1.226-.248-.412-.6-.618-1.058-.618-.472 0-.832.206-1.08.618-.212.34-.316.756-.316 1.247 0 .477.106.886.316 1.226.255.413.61.619 1.069.619.45 0 .804-.21 1.058-.63.217-.347.327-.759.327-1.236ZM101.772 8.17h-1.177V5.21c0-.911-.355-1.367-1.07-1.367-.349 0-.63.125-.849.376a1.308 1.308 0 0 0-.327.885V8.17h-1.18v-3.69c0-.453-.013-.945-.04-1.478h1.033l.055.808h.033c.138-.251.343-.458.61-.624.32-.193.677-.29 1.07-.29.493 0 .904.156 1.231.468.409.382.611.953.611 1.712V8.17ZM109.7 3.864h-1.297v2.51c0 .638.23.956.687.956.211 0 .387-.017.525-.053l.03.871c-.233.086-.538.128-.915.128-.465 0-.827-.138-1.089-.414-.263-.276-.394-.74-.394-1.393V3.864h-.774v-.86h.774v-.948l1.155-.34v1.286h1.297v.862h.001ZM115.937 8.17h-1.179V5.233c0-.926-.356-1.39-1.067-1.39-.547 0-.92.268-1.124.806a1.405 1.405 0 0 0-.055.413v3.107h-1.177V.633h1.177v3.114h.022c.371-.567.903-.85 1.592-.85.488 0 .891.156 1.212.468.399.39.599.968.599 1.733V8.17ZM122.37 5.342c0 .206-.016.38-.044.52h-3.533c.016.512.184.9.512 1.17.299.241.684.362 1.156.362.523 0 1-.081 1.429-.244l.184.797c-.502.213-1.093.32-1.778.32-.821 0-1.467-.236-1.935-.707-.469-.472-.702-1.104-.702-1.898 0-.779.217-1.428.654-1.945.456-.552 1.074-.829 1.853-.829.762 0 1.341.277 1.732.829.316.438.472.98.472 1.625Zm-1.124-.297a1.521 1.521 0 0 0-.228-.882c-.205-.319-.516-.479-.938-.479-.384 0-.698.156-.937.468a1.709 1.709 0 0 0-.35.893h2.453ZM46.423 27.976H43.87l-1.398-4.284h-4.86l-1.333 4.284h-2.485L38.61 13.39h2.974l4.84 14.586Zm-4.373-6.082-1.264-3.808c-.134-.39-.385-1.306-.755-2.748h-.044c-.148.62-.385 1.536-.71 2.748l-1.243 3.808h4.016ZM58.807 22.588c0 1.789-.495 3.202-1.487 4.24-.888.924-1.99 1.386-3.307 1.386-1.42 0-2.441-.498-3.063-1.493h-.045v5.54h-2.397v-11.34c0-1.125-.03-2.279-.088-3.462h2.107l.134 1.667h.045c.8-1.256 2.012-1.883 3.64-1.883 1.272 0 2.335.49 3.184 1.47.852.983 1.277 2.274 1.277 3.875Zm-2.441.085c0-1.023-.236-1.867-.71-2.531-.519-.693-1.215-1.04-2.087-1.04-.591 0-1.129.194-1.608.574a2.65 2.65 0 0 0-.944 1.505c-.074.289-.11.526-.11.712v1.754c0 .765.24 1.41.72 1.937.482.528 1.107.79 1.876.79.902 0 1.605-.34 2.108-1.016.503-.679.755-1.573.755-2.685ZM71.214 22.588c0 1.789-.495 3.202-1.488 4.24-.887.924-1.99 1.386-3.306 1.386-1.421 0-2.442-.498-3.062-1.493h-.045v5.54h-2.397v-11.34c0-1.125-.03-2.279-.088-3.462h2.107l.134 1.667h.045c.798-1.256 2.01-1.883 3.64-1.883 1.271 0 2.333.49 3.185 1.47.85.983 1.275 2.274 1.275 3.875Zm-2.441.085c0-1.023-.237-1.867-.712-2.531-.518-.693-1.212-1.04-2.085-1.04-.593 0-1.129.194-1.61.574a2.648 2.648 0 0 0-.942 1.505 3.05 3.05 0 0 0-.111.712v1.754c0 .765.24 1.41.72 1.937.48.526 1.105.79 1.876.79.903 0 1.606-.34 2.108-1.016.504-.679.756-1.573.756-2.685ZM85.086 23.886c0 1.24-.442 2.25-1.329 3.029-.975.852-2.331 1.277-4.075 1.277-1.61 0-2.9-.303-3.877-.909l.555-1.947a6.698 6.698 0 0 0 3.465.931c.903 0 1.605-.2 2.11-.596.502-.397.753-.93.753-1.594 0-.592-.207-1.09-.622-1.495-.412-.404-1.101-.78-2.064-1.127-2.619-.953-3.927-2.348-3.927-4.183 0-1.199.459-2.182 1.377-2.947.915-.766 2.136-1.148 3.662-1.148 1.361 0 2.492.23 3.395.692l-.6 1.905c-.842-.447-1.796-.67-2.862-.67-.843 0-1.502.202-1.974.605-.4.361-.6.8-.6 1.321 0 .577.229 1.053.688 1.428.398.347 1.124.721 2.176 1.126 1.287.505 2.232 1.096 2.84 1.773.606.675.909 1.52.909 2.529ZM93.01 19.212h-2.642v5.107c0 1.298.465 1.947 1.398 1.947.428 0 .784-.036 1.065-.108l.066 1.774c-.472.172-1.094.259-1.864.259-.946 0-1.686-.282-2.22-.844-.532-.564-.8-1.508-.8-2.836V19.21H86.44v-1.754h1.574v-1.925l2.354-.693v2.618h2.642v1.756ZM104.928 22.63c0 1.617-.474 2.945-1.421 3.982-.992 1.069-2.31 1.602-3.952 1.602-1.583 0-2.843-.512-3.783-1.536s-1.41-2.316-1.41-3.873c0-1.63.484-2.965 1.454-4.003.968-1.039 2.274-1.558 3.917-1.558 1.582 0 2.856.512 3.817 1.536.92.994 1.378 2.278 1.378 3.85Zm-2.486.076c0-.97-.213-1.802-.643-2.495-.503-.84-1.221-1.258-2.152-1.258-.963 0-1.695.42-2.197 1.258-.43.695-.643 1.54-.643 2.54 0 .97.212 1.8.643 2.494.518.84 1.242 1.258 2.176 1.258.915 0 1.633-.428 2.151-1.28.442-.707.665-1.548.665-2.517ZM112.718 19.514a4.266 4.266 0 0 0-.755-.065c-.843 0-1.495.31-1.954.932-.399.548-.599 1.24-.599 2.076v5.519h-2.395l.022-7.205c0-1.212-.03-2.316-.09-3.311h2.088l.087 2.012h.067c.253-.692.652-1.248 1.198-1.666a2.948 2.948 0 0 1 1.732-.563c.222 0 .422.015.599.042v2.229ZM123.437 22.22c0 .418-.028.771-.088 1.06h-7.19c.028 1.038.376 1.833 1.043 2.381.606.49 1.39.735 2.352.735 1.065 0 2.036-.165 2.909-.497l.376 1.622c-1.021.434-2.226.65-3.617.65-1.672 0-2.985-.48-3.941-1.44-.953-.958-1.431-2.246-1.431-3.861 0-1.586.444-2.907 1.334-3.96.93-1.125 2.188-1.687 3.771-1.687 1.555 0 2.732.562 3.531 1.687.633.893.951 1.998.951 3.31Zm-2.286-.607c.016-.692-.14-1.29-.465-1.796-.415-.65-1.052-.974-1.91-.974-.783 0-1.421.317-1.907.952-.399.505-.637 1.112-.71 1.817h4.992v.002Z" fill="#fff"/></svg>