<svg width="27" height="36" viewBox="0 0 27 36" fill="none" xmlns="http://www.w3.org/2000/svg">
<path fill-rule="evenodd" clip-rule="evenodd" d="M16.1344 0.799647C16.6967 0.366079 17.5562 0.506401 18.0542 1.11307C20.7056 4.34333 24.0418 9.8527 25.4937 15.9893C26.9555 22.1679 26.5168 29.0654 21.4477 34.8001C20.9786 35.3309 20.1228 35.3365 19.5362 34.8127C18.9496 34.2889 18.8543 33.4341 19.3234 32.9033C23.7444 27.9017 24.1662 21.9112 22.8485 16.3415C21.5207 10.7298 18.4371 5.63059 16.0178 2.68315C15.5199 2.07649 15.572 1.23321 16.1344 0.799647ZM10.7904 5.75137C11.352 5.31691 12.2116 5.45598 12.7104 6.062C14.5813 8.3351 16.9292 12.2012 17.9525 16.5185C18.9858 20.8783 18.6773 25.7798 15.066 29.8511C14.596 30.381 13.74 30.3853 13.1542 29.8606C12.5683 29.336 12.4744 28.4812 12.9444 27.9513C15.9057 24.6129 16.1959 20.6199 15.3075 16.8717C14.4091 13.081 12.3149 9.62573 10.6767 7.63534C10.1779 7.02932 10.2288 6.18584 10.7904 5.75137ZM6.84298 11.1557C7.40219 10.7184 8.26202 10.8535 8.76348 11.4574C9.78374 12.6862 11.0553 14.7605 11.6117 17.0946C12.1786 19.4733 12.0106 22.1992 9.98689 24.4553C9.51393 24.9825 8.6575 24.9825 8.07399 24.4553C7.49049 23.928 7.40088 23.0731 7.87384 22.5459C9.24116 21.0215 9.38653 19.2094 8.96751 17.4513C8.53788 15.6488 7.52422 13.9876 6.7384 13.0412C6.23695 12.4372 6.28377 11.5931 6.84298 11.1557ZM3.71396 16.7498C3.21593 16.7498 2.85445 17.1528 2.90656 17.6499C2.95867 18.147 3.40464 18.55 3.90267 18.55C4.40069 18.55 4.76217 18.147 4.71006 17.6499C4.65795 17.1528 4.21198 16.7498 3.71396 16.7498ZM0.201311 17.6499C-0.00713016 15.6614 1.4388 14.0495 3.43089 14.0495C5.42299 14.0495 7.20687 15.6614 7.41531 17.6499C7.62375 19.6383 6.17782 21.2503 4.18573 21.2503C2.19364 21.2503 0.409753 19.6383 0.201311 17.6499Z" fill="white"/>
</svg>
