<svg width="27" height="36" fill="none" xmlns="http://www.w3.org/2000/svg"><path fill-rule="evenodd" clip-rule="evenodd" d="M16.134.8c.563-.434 1.422-.294 1.92.313 2.652 3.23 5.988 8.74 7.44 14.876 1.462 6.179 1.023 13.076-4.046 18.811-.47.53-1.325.537-1.912.013-.586-.524-.682-1.379-.213-1.91 4.421-5.001 4.843-10.992 3.526-16.561C21.52 10.73 18.437 5.63 16.018 2.682c-.498-.607-.446-1.45.116-1.883ZM10.79 5.75c.562-.434 1.422-.295 1.92.311 1.871 2.273 4.22 6.14 5.242 10.456 1.034 4.36.725 9.262-2.886 13.333-.47.53-1.326.534-1.912.01-.586-.525-.68-1.38-.21-1.91 2.962-3.338 3.252-7.331 2.363-11.08-.898-3.79-2.992-7.245-4.63-9.236-.5-.606-.448-1.45.113-1.884Zm-3.947 5.405c.56-.438 1.419-.303 1.92.301 1.02 1.23 2.292 3.303 2.849 5.638.567 2.378.399 5.104-1.625 7.36-.473.528-1.33.528-1.913 0-.584-.527-.673-1.382-.2-1.91 1.367-1.524 1.513-3.336 1.094-5.094-.43-1.802-1.444-3.463-2.23-4.41-.501-.604-.454-1.448.105-1.885ZM3.714 16.75a.796.796 0 0 0-.807.9c.052.497.498.9.996.9s.86-.403.807-.9a1.025 1.025 0 0 0-.996-.9Zm-3.513.9c-.208-1.989 1.238-3.6 3.23-3.6s3.776 1.611 3.984 3.6c.209 1.988-1.237 3.6-3.23 3.6-1.991 0-3.775-1.612-3.984-3.6Z" fill="#fff"/></svg>