<svg width="49" height="36" viewBox="0 0 49 36" fill="none" xmlns="http://www.w3.org/2000/svg">
<path d="M0.124589 1.76237C0.0324878 1.10361 0.493809 0.56958 1.15498 0.56958H11.3308C11.992 0.56958 12.6026 1.10361 12.6947 1.76237L13.7568 9.35876C13.8211 9.81882 13.6141 10.2379 13.2249 10.4357L8.47447 12.8497C8.17045 13.0041 7.79229 13.0041 7.44508 12.8497L2.01967 10.4357C1.57512 10.2379 1.25097 9.81882 1.18665 9.35876L0.124589 1.76237Z" fill="white"/>
<path d="M19.2791 1.76237C19.187 1.10361 19.6483 0.56958 20.3094 0.56958H23.3023C23.9635 0.56958 24.5742 1.10361 24.6663 1.76237L24.9998 4.14794C25.0919 4.8067 24.6306 5.34073 23.9694 5.34073H20.9765C20.3153 5.34073 19.7047 4.8067 19.6126 4.14794L19.2791 1.76237Z" fill="white"/>
<path d="M31.2506 1.76237C31.1585 1.10361 31.6198 0.56958 32.281 0.56958H42.4568C43.118 0.56958 43.7286 1.10361 43.8207 1.76237L44.8213 8.91909C44.9134 9.57785 44.4521 10.1119 43.7909 10.1119H33.6151C32.9539 10.1119 32.3433 9.57785 32.2512 8.91909L31.2506 1.76237Z" fill="white"/>
<path d="M1.87562 14.2866C1.78352 13.6279 2.24484 13.0939 2.90601 13.0939H13.0818C13.743 13.0939 14.3536 13.6279 14.4457 14.2866L15.4463 21.4434C15.5384 22.1021 15.0771 22.6362 14.4159 22.6362H4.24013C3.57896 22.6362 2.96831 22.1021 2.87621 21.4434L1.87562 14.2866Z" fill="white"/>
<path d="M16.7716 9.51549C16.6795 8.85673 17.1408 8.3227 17.802 8.3227H27.9778C28.6389 8.3227 29.2496 8.85673 29.3417 9.51549L31.6764 26.2145C31.7685 26.8733 31.3072 27.4073 30.646 27.4073H20.4702C19.809 27.4073 19.1984 26.8733 19.1063 26.2145L16.7716 9.51549Z" fill="white"/>
<path d="M33.0016 14.2866C32.9095 13.6279 33.3708 13.0939 34.032 13.0939H44.2078C44.869 13.0939 45.4796 13.6279 45.5718 14.2866L46.5723 21.4434C46.6644 22.1021 46.2031 22.6362 45.5419 22.6362H35.3661C34.705 22.6362 34.0943 22.1021 34.0022 21.4434L33.0016 14.2866Z" fill="white"/>
<path d="M3.62665 26.8109C3.53455 26.1522 3.99587 25.6181 4.65704 25.6181H14.8328C15.494 25.6181 16.1047 26.1522 16.1968 26.8109L17.1974 33.9676C17.2895 34.6264 16.8281 35.1604 16.167 35.1604H5.99115C5.32998 35.1604 4.71934 34.6264 4.62724 33.9676L3.62665 26.8109Z" fill="white"/>
<path d="M23.4482 31.5821C23.3561 30.9233 23.8174 30.3893 24.4786 30.3893H27.4715C28.1326 30.3893 28.7433 30.9233 28.8354 31.5821L29.1689 33.9676C29.261 34.6264 28.7997 35.1604 28.1385 35.1604H25.1456C24.4845 35.1604 23.8738 34.6264 23.7817 33.9676L23.4482 31.5821Z" fill="white"/>
<path d="M34.6912 26.3712C34.6269 25.9112 34.8338 25.4921 35.2231 25.2943L39.9735 22.8804C40.2775 22.7259 40.6557 22.7259 41.0029 22.8804L46.4283 25.2943C46.8728 25.4921 47.197 25.9112 47.2613 26.3713L48.3234 33.9676C48.4155 34.6264 47.9541 35.1604 47.293 35.1604H37.1172C36.456 35.1604 35.8453 34.6264 35.7532 33.9676L34.6912 26.3712Z" fill="white"/>
</svg>
