<svg width="49" height="36" fill="none" xmlns="http://www.w3.org/2000/svg"><path d="M.125 1.762C.032 1.104.494.57 1.155.57h10.176c.661 0 1.272.534 1.364 1.192l1.062 7.597c.064.46-.143.879-.532 1.077l-4.75 2.414c-.305.154-.683.154-1.03 0L2.02 10.436a1.426 1.426 0 0 1-.833-1.077L.125 1.762ZM19.28 1.762c-.093-.658.368-1.192 1.03-1.192h2.992c.662 0 1.272.534 1.364 1.192L25 4.148c.092.659-.37 1.193-1.03 1.193h-2.993c-.662 0-1.272-.534-1.364-1.193l-.334-2.386ZM31.25 1.762C31.16 1.104 31.62.57 32.282.57h10.176c.661 0 1.272.534 1.364 1.192l1 7.157c.092.659-.369 1.193-1.03 1.193H33.615c-.661 0-1.272-.534-1.364-1.193l-1-7.157ZM1.876 14.287c-.092-.66.369-1.193 1.03-1.193h10.176c.661 0 1.272.534 1.364 1.193l1 7.156c.092.66-.369 1.193-1.03 1.193H4.24c-.661 0-1.272-.534-1.364-1.193l-1-7.156ZM16.772 9.515c-.092-.658.369-1.192 1.03-1.192h10.176c.66 0 1.272.534 1.364 1.192l2.334 16.7c.093.658-.369 1.192-1.03 1.192H20.47c-.661 0-1.272-.534-1.364-1.192l-2.334-16.7ZM33.002 14.287c-.093-.66.369-1.193 1.03-1.193h10.176c.661 0 1.272.534 1.364 1.193l1 7.156c.092.66-.369 1.193-1.03 1.193H35.366c-.661 0-1.272-.534-1.364-1.193l-1-7.156ZM3.627 26.81c-.092-.658.369-1.192 1.03-1.192h10.176c.661 0 1.272.534 1.364 1.193l1 7.157c.093.658-.369 1.192-1.03 1.192H5.991c-.661 0-1.272-.534-1.364-1.192l-1-7.157ZM23.448 31.582c-.092-.659.37-1.193 1.03-1.193h2.993c.662 0 1.272.534 1.364 1.193l.334 2.386c.092.658-.37 1.192-1.03 1.192h-2.993c-.662 0-1.272-.534-1.364-1.192l-.334-2.386ZM34.691 26.371c-.064-.46.143-.879.532-1.077l4.75-2.414c.305-.154.683-.154 1.03 0l5.425 2.414c.445.198.769.617.833 1.077l1.062 7.597c.093.658-.369 1.192-1.03 1.192H37.117c-.661 0-1.272-.534-1.364-1.192l-1.062-7.597Z" fill="#fff"/></svg>