<svg width="139" height="33" fill="none" xmlns="http://www.w3.org/2000/svg"><path d="M.986 1.608c-.348.355-.55.908-.55 1.625v25.543c0 .716.202 1.269.55 1.624l.086.078 14.68-14.308v-.338L1.073 1.525l-.086.083ZM22.418 20.942 17.53 16.17v-.338l4.894-4.771.11.062 5.795 3.215c1.654.913 1.654 2.414 0 3.332l-5.796 3.21-.115.062ZM21.645 21.768 16.64 16.89 1.875 31.289c.549.563 1.445.63 2.464.067l17.306-9.588ZM21.645 10.234 4.339.646C3.319.09 2.424.156 1.875.72L16.64 15.113l5.004-4.879ZM45.685 4.733c0 .964-.296 1.737-.88 2.313-.67.683-1.544 1.026-2.614 1.026-1.023 0-1.897-.35-2.614-1.038-.718-.699-1.076-1.556-1.076-2.583 0-1.026.358-1.884 1.076-2.577.717-.694 1.59-1.044 2.614-1.044.51 0 .995.103 1.458.293.462.192.838.452 1.111.773l-.619.609c-.475-.547-1.122-.817-1.95-.817-.747 0-1.394.254-1.943.766-.543.514-.816 1.18-.816 1.997 0 .817.273 1.489.816 2.003.55.506 1.197.766 1.943.766.792 0 1.458-.26 1.984-.772.347-.34.544-.807.595-1.405h-2.58V4.21h3.442c.042.18.053.355.053.524ZM51.145 1.84h-3.232v2.194h2.914v.834h-2.914v2.195h3.232v.85h-4.148V.99h4.148v.85ZM54.998 7.913h-.915V1.84H52.1V.99h4.883v.85h-1.985v6.074ZM60.516 7.913V.99h.913v6.924h-.913ZM65.48 7.913h-.908V1.84h-1.99V.99h4.887v.85h-1.99v6.074ZM76.713 7.023c-.7.7-1.569 1.05-2.604 1.05-1.04 0-1.908-.35-2.609-1.05-.699-.7-1.047-1.557-1.047-2.572 0-1.015.348-1.872 1.047-2.571.7-.7 1.568-1.05 2.61-1.05 1.029 0 1.896.35 2.597 1.056.705.704 1.053 1.556 1.053 2.565 0 1.015-.348 1.873-1.047 2.572Zm-4.536-.58c.527.517 1.168.777 1.932.777.759 0 1.406-.26 1.927-.778.526-.518.792-1.184.792-1.99 0-.808-.266-1.474-.792-1.992-.521-.518-1.168-.778-1.927-.778-.764 0-1.405.26-1.932.778-.526.518-.792 1.184-.792 1.991 0 .807.266 1.473.792 1.991ZM79.043 7.913V.99h1.111l3.453 5.385h.04l-.04-1.33V.988h.914v6.924h-.954l-3.616-5.65h-.04l.04 1.336v4.314h-.907ZM70.228 18.026c-2.782 0-5.055 2.064-5.055 4.913 0 2.825 2.273 4.912 5.055 4.912 2.789 0 5.062-2.087 5.062-4.912 0-2.849-2.273-4.913-5.062-4.913Zm0 7.89c-1.526 0-2.84-1.229-2.84-2.977 0-1.772 1.314-2.979 2.84-2.979 1.527 0 2.846 1.207 2.846 2.979 0 1.748-1.319 2.977-2.846 2.977Zm-11.03-7.89c-2.788 0-5.056 2.064-5.056 4.913 0 2.825 2.267 4.912 5.056 4.912 2.787 0 5.055-2.087 5.055-4.912 0-2.849-2.268-4.913-5.055-4.913Zm0 7.89c-1.528 0-2.846-1.229-2.846-2.977 0-1.772 1.318-2.979 2.846-2.979 1.526 0 2.84 1.207 2.84 2.979 0 1.748-1.313 2.977-2.84 2.977ZM46.072 19.53v2.088h5.113c-.15 1.167-.55 2.024-1.162 2.622-.747.722-1.909 1.523-3.951 1.523-3.147 0-5.61-2.476-5.61-5.544 0-3.068 2.463-5.544 5.61-5.544 1.701 0 2.94.648 3.853 1.489l1.509-1.472c-1.278-1.19-2.978-2.103-5.362-2.103-4.315 0-7.942 3.423-7.942 7.63s3.627 7.63 7.942 7.63c2.332 0 4.084-.745 5.461-2.142 1.411-1.376 1.851-3.31 1.851-4.873 0-.485-.041-.931-.115-1.304h-7.197Zm53.673 1.619c-.416-1.099-1.7-3.124-4.315-3.124-2.591 0-4.749 1.99-4.749 4.913 0 2.752 2.135 4.912 4.998 4.912a5.024 5.024 0 0 0 4.2-2.178l-1.718-1.116c-.573.817-1.354 1.359-2.482 1.359-1.121 0-1.925-.501-2.44-1.489l6.739-2.718-.233-.56Zm-6.87 1.636a2.726 2.726 0 0 1 2.63-2.865c.88 0 1.626.43 1.875 1.043l-4.506 1.822Zm-5.478 4.766h2.215V13.114h-2.215v14.438Zm-3.628-8.432h-.074c-.498-.575-1.447-1.094-2.65-1.094-2.523 0-4.83 2.16-4.83 4.929 0 2.753 2.307 4.896 4.83 4.896 1.203 0 2.152-.525 2.65-1.117h.074v.705c0 1.878-1.03 2.888-2.69 2.888-1.353 0-2.192-.953-2.539-1.755l-1.927.784c.556 1.303 2.026 2.905 4.467 2.905 2.597 0 4.788-1.49 4.788-5.115v-8.822h-2.1v.796Zm-2.534 6.796c-1.527 0-2.805-1.246-2.805-2.961 0-1.731 1.278-2.995 2.805-2.995 1.505 0 2.69 1.264 2.69 2.995 0 1.715-1.185 2.96-2.69 2.96Zm28.882-12.802h-5.299v14.438h2.21v-5.47h3.089c2.453 0 4.86-1.732 4.86-4.485 0-2.752-2.413-4.483-4.86-4.483Zm.057 6.959h-3.146v-4.95h3.146a2.537 2.537 0 0 1 2.592 2.474c0 1.117-.942 2.476-2.592 2.476Zm13.658-2.075c-1.597 0-3.257.687-3.939 2.21l1.96.802c.422-.801 1.198-1.061 2.019-1.061 1.146 0 2.308.671 2.326 1.856v.152c-.4-.225-1.256-.559-2.309-.559-2.111 0-4.263 1.134-4.263 3.249 0 1.934 1.73 3.18 3.674 3.18 1.487 0 2.307-.654 2.823-1.415h.075v1.117h2.134V21.99c0-2.56-1.961-3.992-4.5-3.992Zm-.267 7.912c-.722 0-1.729-.35-1.729-1.223 0-1.117 1.255-1.546 2.342-1.546.973 0 1.429.21 2.02.485-.173 1.337-1.353 2.284-2.633 2.284Zm12.541-7.596-2.54 6.26h-.075l-2.625-6.26h-2.383l3.945 8.747-2.251 4.867h2.309l6.078-13.614h-2.458Zm-19.915 9.238h2.215V13.114h-2.215v14.438Z" fill="#fff"/></svg>