<svg width="72" height="48" fill="none" xmlns="http://www.w3.org/2000/svg"><g clip-path="url('#clip0_22_395')" fill="#2E2E2E"><path fill-rule="evenodd" clip-rule="evenodd" d="M17.38 3.417c-.223-.069-.545-.083-1.797-.083H7.407c-1.027 0-1.709 0-2.23.047-.502.044-.722.122-.858.198-.31.174-.566.43-.74.74-.076.136-.154.356-.198.859-.046.52-.048 1.202-.048 2.23v2.257h12.25c1.252 0 1.574-.015 1.798-.083a1.927 1.927 0 0 0 1.284-1.285c.068-.224.083-.545.083-1.798 0-1.252-.015-1.574-.083-1.798a1.927 1.927 0 0 0-1.284-1.284ZM3.334 13.283v8.356H.581V7.348c0-.952 0-1.756.058-2.412.06-.689.193-1.346.538-1.962a4.68 4.68 0 0 1 1.797-1.796C3.59.832 4.247.7 4.935.638 5.592.582 6.395.582 7.348.582h8.426C16.737.58 17.51.579 18.18.782a4.68 4.68 0 0 1 3.12 3.12c.203.67.202 1.443.201 2.406v.383c.001.962.002 1.736-.202 2.405a4.68 4.68 0 0 1-3.12 3.12c-.669.203-1.442.202-2.405.202H7.71L21.3 21.58l-5.525.058-12.44-8.356ZM32.122.581h12.777v2.753H32.18c-1.027 0-1.708 0-2.23.047-.502.044-.722.122-.858.198-.31.174-.566.43-.74.74-.076.136-.154.356-.198.859-.046.52-.048 1.202-.048 2.23v2.257H44.9v2.752H28.107v2.258c0 1.027.002 1.708.048 2.23.044.502.122.722.198.858.174.31.43.566.74.74.136.076.356.154.859.198.52.046 1.202.048 2.23.048h12.717V21.5H32.122c-.952 0-1.756 0-2.413-.058-.688-.06-1.345-.193-1.961-.538a4.68 4.68 0 0 1-1.797-1.797c-.345-.616-.477-1.273-.538-1.961-.058-.657-.058-1.46-.058-2.413V7.348c0-.952 0-1.756.058-2.412.06-.689.193-1.346.538-1.962a4.68 4.68 0 0 1 1.797-1.796C28.364.832 29.02.7 29.709.638c.657-.057 1.46-.057 2.413-.057Z"/><path d="M33.407 26.755a4.68 4.68 0 0 1 3.935-.073c1.156.51 1.877 1.703 2.473 2.968.624 1.327 1.297 3.172 2.149 5.508l4.724 12.068h-3.254l-4.03-11.052c-.884-2.425-1.515-4.151-2.08-5.35-.6-1.276-.96-1.565-1.093-1.623a1.927 1.927 0 0 0-1.62.03c-.13.063-.48.365-1.032 1.662-.52 1.22-1.086 2.969-1.879 5.425l-3.66 10.908h-3.17l4.234-11.828c.765-2.366 1.368-4.236 1.943-5.585.548-1.286 1.224-2.505 2.36-3.058ZM64.282 26.306c.953 0 1.756 0 2.413.058.688.06 1.345.194 1.961.539a4.68 4.68 0 0 1 1.797 1.796c.345.616.477 1.273.538 1.962.058.656.058 1.46.058 2.412v14.153h-2.752V33.133c0-1.028-.002-1.71-.048-2.23-.044-.503-.122-.723-.198-.859a1.927 1.927 0 0 0-.74-.74c-.136-.076-.356-.154-.859-.198-.52-.046-1.202-.047-2.23-.047h-7.266c-1.028 0-1.71 0-2.23.047-.503.044-.723.122-.859.198-.31.174-.566.43-.74.74-.076.136-.154.356-.198.859-.046.52-.047 1.202-.047 2.23v14.093h-2.753V33.073c0-.952 0-1.756.058-2.412.06-.689.194-1.346.539-1.962a4.68 4.68 0 0 1 1.796-1.796c.616-.345 1.273-.478 1.962-.539.656-.058 1.46-.058 2.412-.058h7.386ZM3.333 26.306v9.084h15.415v-9.084h2.753v20.92h-2.753v-9.084H3.333v9.084H.581v-20.92h2.752ZM59.42.58l1.313 10.3 10.3 1.313-10.3 1.314-1.314 10.3-1.314-10.3-10.299-1.313 10.3-1.314L59.418.58Z"/></g><defs><clipPath id="clip0_22_395"><path fill="#fff" d="M0 0h71.613v48H0z"/></clipPath></defs></svg>