<svg width="50" height="55" viewBox="0 0 50 55" fill="none" xmlns="http://www.w3.org/2000/svg">
<ellipse cx="25" cy="27.5" rx="25" ry="26.75" fill="#F5F7FA"/>
<g clip-path="url(#clip0_105_565)">
<path d="M25.2845 40.34H23.7155C22.4465 40.34 21.414 39.2353 21.414 37.8775V37.3095C20.8745 37.1251 20.3503 36.8923 19.8468 36.6135L19.4706 37.016C18.5595 37.992 17.1001 37.9634 16.2155 37.0156L15.1065 35.8291C14.2204 34.8819 14.1949 33.3209 15.1068 32.3461L15.4827 31.9439C15.2221 31.4051 15.0046 30.8444 14.8322 30.267H14.3014C13.0325 30.267 12 29.1623 12 27.8045V26.1256C12 24.7678 13.0325 23.6631 14.3015 23.6631H14.8322C15.0046 23.0858 15.2222 22.5249 15.4828 21.9861L15.1066 21.5837C14.1952 20.6095 14.2203 19.0483 15.1069 18.1007L16.2159 16.9141C17.1026 15.964 18.5617 15.9403 19.471 16.9144L19.8468 17.3165C20.3504 17.0377 20.8746 16.8049 21.4141 16.6205V16.0525C21.4141 14.6947 22.4465 13.59 23.7155 13.59H25.2845C26.5535 13.59 27.5859 14.6947 27.5859 16.0525V16.6205C28.1254 16.8049 28.6496 17.0377 29.1532 17.3166L29.5293 16.9141C30.4404 15.938 31.8999 15.9666 32.7845 16.9144L33.8934 18.101C34.7796 19.0481 34.8051 20.6092 33.8931 21.5839L33.5172 21.9861C33.7778 22.5249 33.9954 23.0857 34.1678 23.6631H34.6985C35.9675 23.6631 37 24.7678 37 26.1256V27.8045C37 29.1623 35.9675 30.267 34.6985 30.267H34.1678C33.9954 30.8443 33.7778 31.4051 33.5172 31.9439L33.8934 32.3464C34.8048 33.3206 34.7797 34.8818 33.8931 35.8294L32.7841 37.016C31.8974 37.9661 30.4383 37.9898 29.529 37.0157L29.1532 36.6136C28.6496 36.8924 28.1254 37.1252 27.5859 37.3096V37.8776C27.5859 39.2353 26.5535 40.34 25.2845 40.34ZM20.0917 34.9676C20.7912 35.4102 21.5441 35.7447 22.3295 35.9615C22.6529 36.0508 22.8789 36.3629 22.8789 36.7204V37.8775C22.8789 38.3711 23.2542 38.7726 23.7155 38.7726H25.2845C25.7458 38.7726 26.1211 38.3711 26.1211 37.8775V36.7204C26.1211 36.3629 26.3471 36.0508 26.6706 35.9615C27.4559 35.7447 28.2088 35.4102 28.9084 34.9676C29.1962 34.7854 29.5627 34.835 29.7992 35.088L30.5652 35.9077C30.8955 36.2615 31.4258 36.2533 31.748 35.908L32.8577 34.7207C33.1791 34.3772 33.1898 33.8096 32.858 33.455L32.0917 32.635C31.8552 32.3821 31.8089 31.9899 31.9791 31.682C32.3928 30.9335 32.7053 30.1278 32.908 29.2875C32.9915 28.9414 33.2832 28.6996 33.6172 28.6996H34.6986C35.1599 28.6996 35.5352 28.2981 35.5352 27.8045V26.1256C35.5352 25.6321 35.1599 25.2305 34.6986 25.2305H33.6172C33.2832 25.2305 32.9915 24.9887 32.908 24.6427C32.7053 23.8023 32.3928 22.9967 31.9791 22.2482C31.8089 21.9403 31.8552 21.5481 32.0917 21.2951L32.8577 20.4754C33.1889 20.1215 33.1802 19.5541 32.858 19.2098L31.7484 18.0225C31.4268 17.6779 30.8963 17.6678 30.5655 18.0222L29.7992 18.8422C29.5628 19.0952 29.1962 19.1447 28.9084 18.9626C28.2089 18.5199 27.456 18.1855 26.6706 17.9686C26.3472 17.8793 26.1212 17.5672 26.1212 17.2098V16.0525C26.1212 15.559 25.7458 15.1574 25.2846 15.1574H23.7156C23.2543 15.1574 22.879 15.559 22.879 16.0525V17.2097C22.879 17.5671 22.653 17.8792 22.3295 17.9685C21.5442 18.1854 20.7913 18.5198 20.0917 18.9625C19.8038 19.1446 19.4374 19.095 19.2009 18.8421L18.4349 18.0224C18.1046 17.6686 17.5742 17.6768 17.2521 18.022L16.1424 19.2094C15.821 19.5528 15.8103 20.1204 16.1421 20.475L16.9084 21.295C17.1449 21.548 17.1912 21.9402 17.021 22.2481C16.6073 22.9966 16.2948 23.8022 16.0921 24.6426C16.0086 24.9887 15.7169 25.2304 15.3829 25.2304H14.3015C13.8402 25.2305 13.4648 25.632 13.4648 26.1256V27.8045C13.4648 28.298 13.8402 28.6996 14.3015 28.6996H15.3829C15.7169 28.6996 16.0085 28.9414 16.092 29.2874C16.2947 30.1278 16.6073 30.9334 17.0209 31.6819C17.1911 31.9898 17.1448 32.382 16.9084 32.635L16.1423 33.4547C15.8112 33.8086 15.8198 34.376 16.142 34.7203L17.2517 35.9076C17.5733 36.2522 18.1038 36.2623 18.4345 35.9079L19.2008 35.0879C19.375 34.9016 19.7375 34.7434 20.0917 34.9676Z" fill="#718EBF"/>
<path d="M24.5 32.7853C21.5006 32.7853 19.0605 30.1743 19.0605 26.9651C19.0605 23.7558 21.5006 21.1448 24.5 21.1448C27.4994 21.1448 29.9395 23.7558 29.9395 26.9651C29.9395 30.1743 27.4994 32.7853 24.5 32.7853ZM24.5 22.7122C22.3083 22.7122 20.5254 24.62 20.5254 26.9651C20.5254 29.3101 22.3084 31.2179 24.5 31.2179C26.6916 31.2179 28.4746 29.3101 28.4746 26.9651C28.4746 24.62 26.6917 22.7122 24.5 22.7122Z" fill="#718EBF"/>
</g>
<defs>
<clipPath id="clip0_105_565">
<rect width="25" height="26.75" fill="white" transform="translate(12 13.59)"/>
</clipPath>
</defs>
</svg>
