<svg width="51" height="63" viewBox="0 0 51 63" fill="none" xmlns="http://www.w3.org/2000/svg">
<ellipse cx="25.7983" cy="31.4074" rx="25.021" ry="31.1728" fill="#F5F7FA"/>
<g clip-path="url(#clip0_105_441)">
<path d="M26.083 46.3703H24.5127C23.2426 46.3703 22.2093 45.083 22.2093 43.5007V42.8388C21.6694 42.6239 21.1447 42.3526 20.6408 42.0276L20.2643 42.4967C19.3524 43.6341 17.8918 43.6008 17.0064 42.4963L15.8965 41.1136C15.0096 40.0098 14.9841 38.1906 15.8968 37.0547L16.273 36.586C16.0122 35.9581 15.7945 35.3047 15.6219 34.6318H15.0907C13.8207 34.6318 12.7874 33.3445 12.7874 31.7622V29.8057C12.7874 28.2234 13.8207 26.936 15.0908 26.936H15.622C15.7945 26.2633 16.0123 25.6097 16.2731 24.9818L15.8966 24.5128C14.9844 23.3776 15.0096 21.5582 15.8969 20.454L17.0068 19.0712C17.8943 17.964 19.3546 17.9364 20.2647 19.0715L20.6408 19.5402C21.1448 19.2153 21.6694 18.944 22.2094 18.729V18.0672C22.2094 16.4849 23.2426 15.1975 24.5128 15.1975H26.0831C27.3531 15.1975 28.3864 16.4849 28.3864 18.0672V18.7291C28.9264 18.944 29.451 19.2153 29.955 19.5402L30.3315 19.0712C31.2433 17.9337 32.704 17.9671 33.5893 19.0716L34.6992 20.4543C35.5861 21.558 35.6116 23.3772 34.6989 24.5131L34.3227 24.9818C34.5835 25.6097 34.8012 26.2632 34.9738 26.936H35.505C36.7751 26.936 37.8084 28.2234 37.8084 29.8057V31.7622C37.8084 33.3445 36.7751 34.6318 35.505 34.6318H34.9738C34.8012 35.3046 34.5835 35.9581 34.3227 36.586L34.6992 37.0551C35.6114 38.1903 35.5862 40.0097 34.6989 41.114L33.5889 42.4968C32.7015 43.6039 31.2412 43.6315 30.3311 42.4964L29.955 42.0278C29.451 42.3526 28.9264 42.6239 28.3864 42.8389V43.5008C28.3864 45.083 27.3531 46.3703 26.083 46.3703V46.3703ZM20.8858 40.1096C21.586 40.6255 22.3395 41.0152 23.1256 41.2679C23.4493 41.372 23.6754 41.7357 23.6754 42.1522V43.5007C23.6754 44.0759 24.0511 44.5438 24.5128 44.5438H26.0831C26.5447 44.5438 26.9204 44.0759 26.9204 43.5007V42.1522C26.9204 41.7357 27.1466 41.372 27.4703 41.2679C28.2563 41.0152 29.0098 40.6255 29.71 40.1096C29.9981 39.8974 30.3648 39.9551 30.6015 40.2499L31.3682 41.2052C31.6987 41.6175 32.2295 41.6079 32.552 41.2056L33.6626 39.8219C33.9843 39.4217 33.995 38.7602 33.6629 38.347L32.8959 37.3914C32.6593 37.0966 32.613 36.6396 32.7833 36.2808C33.1973 35.4085 33.5101 34.4697 33.713 33.4904C33.7965 33.0871 34.0885 32.8054 34.4227 32.8054H35.505C35.9667 32.8054 36.3424 32.3374 36.3424 31.7622V29.8058C36.3424 29.2306 35.9667 28.7626 35.505 28.7626H34.4227C34.0884 28.7626 33.7965 28.4809 33.713 28.0776C33.5101 27.0983 33.1973 26.1595 32.7833 25.2872C32.613 24.9284 32.6593 24.4714 32.8959 24.1766L33.6626 23.2213C33.9941 22.8089 33.9854 22.1477 33.6629 21.7464L32.5524 20.3628C32.2305 19.9612 31.6996 19.9495 31.3685 20.3625L30.6016 21.318C30.3649 21.6129 29.998 21.6706 29.71 21.4584C29.0099 20.9425 28.2563 20.5528 27.4703 20.3001C27.1466 20.196 26.9204 19.8323 26.9204 19.4158V18.0672C26.9204 17.492 26.5448 17.024 26.0831 17.024H24.5128C24.0511 17.024 23.6755 17.492 23.6755 18.0672V19.4156C23.6755 19.8322 23.4493 20.1959 23.1256 20.2999C22.3396 20.5527 21.586 20.9424 20.8859 21.4583C20.5978 21.6704 20.231 21.6127 19.9944 21.3179L19.2277 20.3627C18.8972 19.9504 18.3663 19.96 18.0439 20.3623L16.9332 21.7459C16.6116 22.1462 16.6008 22.8076 16.933 23.2209L17.7 24.1764C17.9366 24.4712 17.9829 24.9282 17.8126 25.2871C17.3985 26.1593 17.0858 27.0982 16.8829 28.0775C16.7993 28.4808 16.5074 28.7625 16.1731 28.7625H15.0908C14.6291 28.7626 14.2535 29.2305 14.2535 29.8057V31.7622C14.2535 32.3373 14.6291 32.8053 15.0908 32.8053H16.1731C16.5074 32.8053 16.7993 33.0871 16.8829 33.4903C17.0857 34.4696 17.3985 35.4085 17.8126 36.2807C17.9829 36.6396 17.9365 37.0966 17.6999 37.3914L16.9332 38.3466C16.6018 38.759 16.6104 39.4202 16.9329 39.8215L18.0435 41.2051C18.3654 41.6067 18.8963 41.6184 19.2273 41.2055L19.9943 40.2499C20.1686 40.0327 20.5314 39.8484 20.8858 40.1096V40.1096Z" fill="#718EBF"/>
<path d="M25.2979 37.5665C22.296 37.5665 19.8539 34.5238 19.8539 30.7839C19.8539 27.044 22.296 24.0014 25.2979 24.0014C28.2998 24.0014 30.7419 27.044 30.7419 30.7839C30.7419 34.5238 28.2998 37.5665 25.2979 37.5665V37.5665ZM25.2979 25.8279C23.1044 25.8279 21.3199 28.0512 21.3199 30.7839C21.3199 33.5167 23.1044 35.7399 25.2979 35.7399C27.4913 35.7399 29.2758 33.5167 29.2758 30.7839C29.2758 28.0512 27.4914 25.8279 25.2979 25.8279V25.8279Z" fill="#718EBF"/>
</g>
<defs>
<clipPath id="clip0_105_441">
<rect width="25.021" height="31.1728" fill="white" transform="translate(12.7874 15.1975)"/>
</clipPath>
</defs>
</svg>
