<svg width="51" height="63" viewBox="0 0 51 63" fill="none" xmlns="http://www.w3.org/2000/svg">
<ellipse cx="25.8656" cy="31.4074" rx="25.021" ry="31.1728" fill="#F5F7FA"/>
<g clip-path="url(#clip0_105_446)">
<path d="M25.3071 46.3704C23.1522 46.3704 21.3975 44.1857 21.3975 41.4996C21.3975 40.9619 21.7478 40.5255 22.1794 40.5255C22.611 40.5255 22.9613 40.9619 22.9613 41.4996C22.9613 43.1116 24.0143 44.4221 25.3071 44.4221C26.5998 44.4221 27.6528 43.1116 27.6528 41.4996C27.6528 40.9619 28.0031 40.5255 28.4347 40.5255C28.8663 40.5255 29.2166 40.9619 29.2166 41.4996C29.2166 44.1857 27.4621 46.3704 25.3071 46.3704V46.3704Z" fill="#FE5C73"/>
<path d="M33.908 42.4737H16.7061C15.7001 42.4737 14.8817 41.4542 14.8817 40.2008C14.8817 39.5356 15.1142 38.9058 15.5197 38.4732C15.5458 38.4447 15.5739 38.4187 15.6031 38.3952C17.1335 36.7313 18.0093 34.3376 18.0093 31.8099V28.1861C18.0093 23.1727 21.284 19.0941 25.3071 19.0941C25.4739 19.0941 25.6543 19.0979 25.8212 19.1331C26.2474 19.2214 26.5353 19.7241 26.4643 20.254C26.3935 20.7839 25.9826 21.1425 25.5646 21.0541C25.4812 21.0372 25.3895 21.0424 25.3071 21.0424C22.1462 21.0424 19.5732 24.2467 19.5732 28.1861V31.8099C19.5732 34.9481 18.469 37.9174 16.5467 39.9551C16.531 39.9708 16.5175 39.9851 16.5007 39.9994C16.4726 40.0436 16.4455 40.1111 16.4455 40.2008C16.4455 40.3773 16.5645 40.5254 16.7061 40.5254H33.908C34.0499 40.5254 34.1688 40.3773 34.1688 40.2008C34.1688 40.1097 34.1417 40.0436 34.1125 39.9994C34.0968 39.9851 34.0833 39.9708 34.0676 39.9551C32.1442 37.916 31.0412 34.9481 31.0412 31.8099V30.3944C31.0412 29.8566 31.3915 29.4202 31.8231 29.4202C32.2547 29.4202 32.605 29.8566 32.605 30.3944V31.8099C32.605 34.339 33.4818 36.734 35.0143 38.3992C35.0423 38.4226 35.0694 38.4473 35.0945 38.4746C35.5001 38.9058 35.7326 39.5356 35.7326 40.2008C35.7326 41.4542 34.9143 42.4737 33.908 42.4737V42.4737Z" fill="#FE5C73"/>
<path d="M32.605 28.1861C29.7307 28.1861 27.3922 25.2729 27.3922 21.6919C27.3922 18.1109 29.7307 15.1975 32.605 15.1975C35.4793 15.1975 37.8176 18.1109 37.8176 21.6919C37.8176 25.2729 35.4793 28.1861 32.605 28.1861V28.1861ZM32.605 17.1458C30.5928 17.1458 28.956 19.185 28.956 21.6919C28.956 24.1987 30.5928 26.2378 32.605 26.2378C34.617 26.2378 36.2538 24.1987 36.2538 21.6919C36.2538 19.185 34.617 17.1458 32.605 17.1458V17.1458Z" fill="#FE5C73"/>
</g>
<defs>
<clipPath id="clip0_105_446">
<rect width="25.021" height="31.1728" fill="white" transform="translate(13.8555 15.1975)"/>
</clipPath>
</defs>
</svg>
