<svg width="50" height="55" viewBox="0 0 50 55" fill="none" xmlns="http://www.w3.org/2000/svg">
<ellipse cx="25" cy="27.5" rx="25" ry="26.75" fill="#F5F7FA"/>
<g clip-path="url(#clip0_105_570)">
<path d="M24.4424 40.34C22.2894 40.34 20.5361 38.4653 20.5361 36.1603C20.5361 35.6989 20.8861 35.3244 21.3174 35.3244C21.7486 35.3244 22.0986 35.6989 22.0986 36.1603C22.0986 37.5436 23.1507 38.6682 24.4424 38.6682C25.734 38.6682 26.7861 37.5436 26.7861 36.1603C26.7861 35.6989 27.1361 35.3244 27.5674 35.3244C27.9986 35.3244 28.3486 35.6989 28.3486 36.1603C28.3486 38.4653 26.5956 40.34 24.4424 40.34Z" fill="#FE5C73"/>
<path d="M33.0357 36.9963H15.8482C14.8431 36.9963 14.0254 36.1214 14.0254 35.0458C14.0254 34.475 14.2577 33.9346 14.6628 33.5633C14.689 33.5389 14.717 33.5166 14.7462 33.4964C16.2753 32.0686 17.1504 30.0145 17.1504 27.8455V24.7358C17.1504 20.4337 20.4223 16.9338 24.442 16.9338C24.6087 16.9338 24.7889 16.937 24.9556 16.9672C25.3816 17.043 25.6692 17.4744 25.5982 17.9291C25.5275 18.3838 25.117 18.6916 24.6993 18.6157C24.6159 18.6012 24.5244 18.6057 24.442 18.6057C21.2838 18.6057 18.7129 21.3553 18.7129 24.7358V27.8455C18.7129 30.5384 17.6097 33.0864 15.689 34.835C15.6733 34.8485 15.6598 34.8607 15.643 34.873C15.615 34.9109 15.5879 34.9689 15.5879 35.0458C15.5879 35.1973 15.7067 35.3244 15.8482 35.3244H33.0357C33.1775 35.3244 33.2963 35.1973 33.2963 35.0458C33.2963 34.9677 33.2692 34.9109 33.24 34.873C33.2244 34.8607 33.2108 34.8485 33.1952 34.835C31.2734 33.0852 30.1713 30.5384 30.1713 27.8455V26.6307C30.1713 26.1693 30.5213 25.7948 30.9525 25.7948C31.3838 25.7948 31.7338 26.1693 31.7338 26.6307V27.8455C31.7338 30.0157 32.6098 32.0709 34.1411 33.4999C34.1691 33.5199 34.1962 33.5411 34.2212 33.5646C34.6265 33.9346 34.8588 34.475 34.8588 35.0458C34.8588 36.1214 34.0411 36.9963 33.0357 36.9963Z" fill="#FE5C73"/>
<path d="M31.7338 24.7358C28.8619 24.7358 26.5254 22.2359 26.5254 19.163C26.5254 16.0901 28.8619 13.59 31.7338 13.59C34.6057 13.59 36.942 16.0901 36.942 19.163C36.942 22.2359 34.6057 24.7358 31.7338 24.7358ZM31.7338 15.2619C29.7233 15.2619 28.0879 17.0117 28.0879 19.163C28.0879 21.3141 29.7233 23.0639 31.7338 23.0639C33.7441 23.0639 35.3795 21.3141 35.3795 19.163C35.3795 17.0117 33.7441 15.2619 31.7338 15.2619Z" fill="#FE5C73"/>
</g>
<defs>
<clipPath id="clip0_105_570">
<rect width="25" height="26.75" fill="white" transform="translate(13 13.59)"/>
</clipPath>
</defs>
</svg>
