<svg width="21" height="26" viewBox="0 0 21 26" fill="none" xmlns="http://www.w3.org/2000/svg">
<g clip-path="url(#clip0_105_455)">
<path d="M19.911 23.6457L15.3056 17.908C16.4472 16.174 17.1352 13.9529 17.1352 11.5322C17.1352 5.97951 13.5189 1.47406 9.06205 1.47406C4.60127 1.47406 0.988861 5.97951 0.988861 11.5322C0.988861 17.0848 4.60127 21.5903 9.06205 21.5903C11.0051 21.5903 12.7839 20.7379 14.1757 19.3156L18.7811 25.0485C19.0939 25.4382 19.5982 25.4382 19.911 25.0485C20.2238 24.6637 20.2238 24.0305 19.911 23.6457ZM9.06205 19.5884C5.49264 19.5884 2.59177 15.9743 2.59177 11.5322C2.59177 7.09004 5.49264 3.47107 9.06205 3.47107C12.6275 3.47107 15.5323 7.09004 15.5323 11.5322C15.5323 15.9743 12.6275 19.5884 9.06205 19.5884Z" fill="#718EBF"/>
</g>
<defs>
<clipPath id="clip0_105_455">
<rect width="20.0168" height="24.9383" fill="white" transform="translate(0.558807 0.938293)"/>
</clipPath>
</defs>
</svg>
