<svg width="20" height="23" viewBox="0 0 20 23" fill="none" xmlns="http://www.w3.org/2000/svg">
<path d="M19.3359 20.2857L14.7344 15.362C15.875 13.8741 16.5625 11.9681 16.5625 9.89082C16.5625 5.12598 12.9492 1.25977 8.49609 1.25977C4.03906 1.25977 0.429688 5.12598 0.429688 9.89082C0.429688 14.6557 4.03906 18.5219 8.49609 18.5219C10.4375 18.5219 12.2148 17.7904 13.6055 16.57L18.207 21.4895C18.5195 21.8238 19.0234 21.8238 19.3359 21.4895C19.6484 21.1593 19.6484 20.6159 19.3359 20.2857ZM8.49609 16.804C4.92969 16.804 2.03125 13.7027 2.03125 9.89082C2.03125 6.07895 4.92969 2.97344 8.49609 2.97344C12.0586 2.97344 14.9609 6.07895 14.9609 9.89082C14.9609 13.7027 12.0586 16.804 8.49609 16.804Z" fill="#718EBF"/>
</svg>
